<?xml version="1.0" encoding="UTF-8"?>
<svg version="1.1" xmlns="http://www.w3.org/2000/svg" width="512" height="512">
<path d="M0 0 C1.47720966 -0.00389684 2.95441821 -0.00823351 4.43162537 -0.01298523 C7.52224359 -0.02042091 10.61274756 -0.02017745 13.70336914 -0.01489258 C17.62087264 -0.00912961 21.53789844 -0.0259644 25.45532322 -0.04923725 C28.50726454 -0.06413963 31.55909554 -0.06482372 34.61106682 -0.06172752 C36.05283484 -0.06223344 37.49461028 -0.06733019 38.93634224 -0.07753944 C66.23898867 -0.24704433 90.37473009 9.1553011 109.87109375 28.30078125 C127.24834684 46.84985569 135.04343095 70.44267501 134.9765625 95.5078125 C134.99001784 97.24675721 135.00504086 98.98569036 135.02148438 100.72460938 C135.04424387 103.41683693 135.05861944 106.10773825 135.04614258 108.80004883 C135.01204157 118.86721908 135.04333925 127.05301398 140.48950195 135.8972168 C144.24890544 142.43747609 143.44702115 150.83871257 141.68359375 157.94140625 C138.94126105 165.90471851 133.95485224 172.70591088 126.87109375 177.30078125 C123.92467369 178.58382576 120.99182213 179.54227088 117.87109375 180.30078125 C117.72414063 181.35394531 117.5771875 182.40710938 117.42578125 183.4921875 C114.30859868 204.17038389 105.16710304 226.4684193 88.109375 239.66357422 C86.8972172 240.5168015 85.68045402 241.36352676 84.45898438 242.20336914 C79.22498968 245.78066268 79.22498968 245.78066268 75.55859375 250.87109375 C75.06566102 254.39350888 75.37656669 256.03808132 76.87109375 259.30078125 C80.92631069 264.54586054 85.86929337 268.97836675 90.87109375 273.30078125 C91.79220947 272.80227661 91.79220947 272.80227661 92.73193359 272.29370117 C99.18219321 268.83539498 105.64266331 266.70257222 112.6484375 264.70703125 C115.935008 263.53639196 115.935008 263.53639196 117.875 261.08203125 C119.63653679 256.16354421 118.44418321 252.52140562 116.27734375 247.90625 C115.64828125 246.77832031 115.01921875 245.65039062 114.37109375 244.48828125 C111.49087708 239.01317643 108.80596751 233.61190307 109.87109375 227.30078125 C112.6627067 219.66588801 118.03475056 214.55646891 123.72485352 208.98046875 C125.31387126 207.42060056 126.88317462 205.84268679 128.45117188 204.26171875 C138.6929318 194.08300777 138.6929318 194.08300777 146.07421875 193.890625 C151.62246181 194.01818403 155.81199684 196.28232254 160.62109375 198.86328125 C162.25505794 199.73140463 163.89553696 200.58740152 165.54296875 201.4296875 C166.25549805 201.8119751 166.96802734 202.1942627 167.70214844 202.58813477 C170.45464326 203.49251707 172.10529153 203.05062471 174.87109375 202.30078125 C175.79921875 202.11515625 176.72734375 201.92953125 177.68359375 201.73828125 C178.76640625 201.52171875 178.76640625 201.52171875 179.87109375 201.30078125 C180.11859375 200.06328125 180.36609375 198.82578125 180.62109375 197.55078125 C184.5856072 180.00157138 184.5856072 180.00157138 190.87109375 174.30078125 C195.96901179 171.68239992 200.18107806 170.84322828 205.9296875 170.8671875 C206.67767105 170.86194565 207.4256546 170.8567038 208.19630432 170.8513031 C209.76863369 170.84491773 211.34101105 170.84617443 212.91333008 170.85473633 C215.29921764 170.8632478 217.6827075 170.83443821 220.06835938 170.80273438 C229.21039758 170.75806195 236.19033389 170.85883567 243.16796875 177.48046875 C245.46924852 181.2913036 246.78958711 185.19349228 248.12109375 189.42578125 C248.52328125 190.64201172 248.52328125 190.64201172 248.93359375 191.8828125 C250.87109375 197.86336097 250.87109375 197.86336097 250.87109375 201.30078125 C256.2529169 203.01972832 260.42236773 203.97487154 265.6875 201.52734375 C267.28428026 200.68762365 268.8665462 199.81976056 270.43359375 198.92578125 C276.623173 195.4730217 281.66289881 192.9697918 288.87109375 194.30078125 C295.66339678 196.99400838 300.53820178 202.40944848 305.63378906 207.50756836 C307.11644951 208.98365759 308.62146975 210.43404213 310.12890625 211.88476562 C315.36686302 217.02903625 319.94020531 221.7482036 320.87109375 229.30078125 C320.64536393 237.06024378 316.99681895 243.67678542 313.44018555 250.41210938 C313.082229 251.11529297 312.72427246 251.81847656 312.35546875 252.54296875 C312.02256836 253.17058105 311.68966797 253.79819336 311.34667969 254.44482422 C310.6916174 257.00118126 311.61293297 258.05261997 312.87109375 260.30078125 C312.87109375 261.29078125 312.87109375 262.28078125 312.87109375 263.30078125 C313.53753906 263.4709375 314.20398438 263.64109375 314.890625 263.81640625 C336.96875585 269.62156513 336.96875585 269.62156513 341.46899414 276.87695312 C343.21698449 281.145422 343.32136308 284.64404379 343.3046875 289.20703125 C343.30992935 290.04995728 343.3151712 290.8928833 343.3205719 291.76135254 C343.32697051 293.53636579 343.3256832 295.31142156 343.31713867 297.08642578 C343.30861899 299.79276342 343.33743392 302.49699498 343.36914062 305.203125 C343.3707527 306.93359312 343.37017498 308.66406496 343.3671875 310.39453125 C343.37842148 311.1978186 343.38965546 312.00110596 343.40122986 312.82873535 C343.33602664 318.1180708 342.3181394 321.07063065 338.87109375 325.30078125 C333.13880122 330.76348577 320.77166471 335.30078125 312.87109375 335.30078125 C312.72671875 336.04328125 312.58234375 336.78578125 312.43359375 337.55078125 C311.87109375 340.30078125 311.87109375 340.30078125 311.22119141 342.23339844 C310.77244978 344.88328971 311.35990907 345.83423693 312.70703125 348.12890625 C313.11179687 348.84691406 313.5165625 349.56492187 313.93359375 350.3046875 C314.79979898 351.78703276 315.66696672 353.26881605 316.53515625 354.75 C320.08185699 361.04651618 321.82032265 366.32409117 320.17578125 373.5234375 C317.75919307 379.9105267 312.47957403 384.47379941 307.66552734 389.1237793 C305.99102003 390.74318802 304.34211082 392.38567029 302.6953125 394.03320312 C301.63291935 395.08085777 300.569163 396.12713221 299.50390625 397.171875 C299.01415314 397.65828964 298.52440002 398.14470428 298.01980591 398.64585876 C293.17385577 403.29465333 288.58611605 404.96824007 281.96484375 404.8984375 C276.33183043 403.81024174 271.50115709 400.88123586 266.5078125 398.1484375 C261.98971301 395.74338981 259.13672739 394.98955986 254.05859375 396.23828125 C253.00671875 396.58890625 251.95484375 396.93953125 250.87109375 397.30078125 C250.62359375 398.53828125 250.37609375 399.77578125 250.12109375 401.05078125 C245.70780962 420.58650752 245.70780962 420.58650752 237.29296875 425.94140625 C232.87942847 427.69473047 229.18831813 427.63421167 224.49609375 427.48828125 C223.24892578 427.46797852 223.24892578 427.46797852 221.9765625 427.44726562 C219.94112309 427.41217184 217.90602084 427.35837353 215.87109375 427.30078125 C216.06445312 428.0278125 216.2578125 428.75484375 216.45703125 429.50390625 C220.67380228 445.78648745 223.61874549 460.91334566 214.87109375 476.30078125 C208.87119499 485.19235096 200.01390546 491.32024383 189.52092761 493.872401 C186.71362394 494.3262383 184.0828531 494.42856956 181.23937702 494.43220901 C179.54598948 494.43797073 179.54598948 494.43797073 177.8183921 494.44384885 C176.5830012 494.44298237 175.34761031 494.44211588 174.07478333 494.44122314 C172.75857945 494.44419427 171.44237557 494.44716539 170.08628672 494.45022655 C166.43417735 494.45828601 162.78208764 494.46008553 159.12997043 494.46082401 C155.19049292 494.46267641 151.25102558 494.47022469 147.31155396 494.47695923 C138.69781835 494.49053566 130.0840874 494.49656621 121.47034287 494.50096989 C116.09066243 494.50373351 110.71098378 494.50797109 105.33130455 494.51247406 C90.43308659 494.5246659 75.53487007 494.53496533 60.63664722 494.53834915 C59.68330002 494.53856872 58.72995281 494.53878828 57.74771629 494.5390145 C56.31429663 494.53934192 56.31429663 494.53934192 54.851919 494.53967595 C52.91552087 494.54011942 50.97912274 494.54056598 49.04272461 494.54101562 C48.08220665 494.54123705 47.12168869 494.54145848 46.13206413 494.54168662 C30.57095357 494.54563399 15.00988985 494.5630865 -0.55120262 494.58637515 C-16.53204643 494.6100987 -32.51286675 494.62255146 -48.49372846 494.62371707 C-57.46456123 494.62463327 -66.43533297 494.6303718 -75.40614891 494.64853668 C-83.04555538 494.66395122 -90.68488195 494.66905015 -98.32430103 494.66079858 C-102.22022249 494.65689685 -106.11598311 494.65779826 -110.01188469 494.67185593 C-113.58300171 494.68462353 -117.15383749 494.68337251 -120.72495428 494.67126521 C-122.61914333 494.66839301 -124.51333736 494.68022234 -126.40748757 494.69268727 C-138.46698113 494.62309646 -149.02394861 491.72841803 -158.13671875 483.484375 C-167.15165059 473.82551946 -169.68486347 463.6652205 -169.46398926 450.83370972 C-168.99448946 439.8613192 -166.40627724 429.06972634 -164.23828125 418.3359375 C-163.73096076 415.76509066 -163.22490058 413.19399483 -162.72003174 410.62266541 C-161.66565009 405.26585538 -160.59821704 399.91178419 -159.52197266 394.55932617 C-158.28407269 388.40238635 -157.06441669 382.24205525 -155.85496306 376.07946879 C-154.68142554 370.10087278 -153.49756511 364.12437935 -152.30860138 358.14883232 C-151.80734998 355.62683697 -151.3082256 353.10441784 -150.8113327 350.58156013 C-150.11450119 347.0539219 -149.40605281 343.52881158 -148.69433594 340.00415039 C-148.49365005 338.97794083 -148.29296417 337.95173126 -148.0861969 336.89442444 C-145.20304578 322.79094637 -140.44775723 310.6592908 -128.12890625 302.30078125 C-121.09152951 298.53828996 -113.51399724 296.62300388 -105.82853508 294.66659546 C-103.6098638 294.10146598 -101.39401858 293.52624312 -99.17860413 292.94848633 C-93.68054193 291.51667282 -88.17846159 290.10058591 -82.67584229 288.68640137 C-78.01037013 287.48699166 -73.3468826 286.28038029 -68.68585396 285.06381226 C-66.51637109 284.50064306 -64.34437914 283.9480343 -62.17210388 283.39575195 C-50.58441096 280.40447653 -42.72393853 276.64711266 -34.12890625 268.23828125 C-33.35417969 267.53767578 -32.57945312 266.83707031 -31.78125 266.11523438 C-27.67908415 262.11073914 -25.60343591 259.32716713 -25.375 253.48046875 C-25.64124181 250.12026302 -25.8647309 248.66799098 -27.8515625 245.90625 C-29.00978516 245.20435547 -29.00978516 245.20435547 -30.19140625 244.48828125 C-31.02027344 243.9365625 -31.84914062 243.38484375 -32.703125 242.81640625 C-33.90388672 242.06617188 -33.90388672 242.06617188 -35.12890625 241.30078125 C-50.70669256 230.15905329 -60.8990041 210.60685778 -65.12890625 192.30078125 C-65.34231796 190.30131677 -65.55091329 188.30133033 -65.75390625 186.30078125 C-66.28326885 183.03007659 -66.51158518 181.76377205 -69.19140625 179.75390625 C-70.92586457 178.93955692 -72.68435202 178.17484356 -74.4609375 177.45703125 C-82.12502092 174.13555439 -86.96125374 167.84950155 -90.12890625 160.30078125 C-93.67110632 150.54202006 -92.15196349 140.63252793 -88.1640625 131.26171875 C-87.12890625 129.30078125 -87.12890625 129.30078125 -85.12890625 127.30078125 C-84.81143411 124.95336663 -84.81143411 124.95336663 -84.84179688 122.19946289 C-84.82167542 120.60123436 -84.82167542 120.60123436 -84.80114746 118.97071838 C-84.79587036 117.81249069 -84.79059326 116.654263 -84.78515625 115.4609375 C-84.77053345 114.26907333 -84.75591064 113.07720917 -84.74084473 111.84922791 C-84.69420748 108.02061354 -84.66012622 104.19205052 -84.62890625 100.36328125 C-84.58754651 95.35398096 -84.53367129 90.34503255 -84.47265625 85.3359375 C-84.46737915 84.19592789 -84.46210205 83.05591827 -84.45666504 81.88136292 C-84.28766586 68.10050776 -82.12367335 55.44740151 -72.50390625 44.92578125 C-66.11293796 39.05001578 -57.88471843 34.69877271 -49.12890625 34.30078125 C-48.92265625 33.02203125 -48.71640625 31.74328125 -48.50390625 30.42578125 C-46.39149167 21.08128063 -40.55994201 13.21662355 -33.12890625 7.30078125 C-22.44116413 0.61243308 -12.3322903 -0.01363214 0 0 Z M-29.01953125 27.56640625 C-32.33911583 32.75617933 -32.70179368 38.70467925 -33.46875 44.69140625 C-34.12890625 47.30078125 -34.12890625 47.30078125 -37.12890625 49.30078125 C-38.9739187 49.63735749 -40.82082402 49.96761505 -42.67675781 50.23754883 C-51.90058161 51.58786443 -57.44966145 53.8469586 -63.50390625 61.17578125 C-67.11857367 68.12706475 -67.41223796 74.8202191 -67.32421875 82.48828125 C-67.32138885 83.4313916 -67.31855896 84.37450195 -67.31564331 85.34619141 C-67.30453067 88.33118881 -67.27944297 91.31587594 -67.25390625 94.30078125 C-67.24386491 96.33593314 -67.23474109 98.37108977 -67.2265625 100.40625 C-67.2046206 105.37121162 -67.17015298 110.335944 -67.12890625 115.30078125 C-61.18890625 114.80578125 -61.18890625 114.80578125 -55.12890625 114.30078125 C-54.90976563 113.33140625 -54.690625 112.36203125 -54.46484375 111.36328125 C-46.91621873 79.0097033 -46.91621873 79.0097033 -35.8828125 70.5859375 C-25.96834213 64.85933942 -14.99560147 67.20374558 -4.37890625 69.61328125 C4.21638028 71.44504239 12.77225011 72.97745442 21.49609375 74.05078125 C22.87812988 74.22347534 22.87812988 74.22347534 24.28808594 74.3996582 C34.88248821 75.64533846 45.50421302 76.31276696 56.16796875 76.4765625 C57.20955643 76.4945842 57.20955643 76.4945842 58.27218628 76.51296997 C61.10352039 76.56107248 63.93440148 76.60898258 66.76611328 76.62670898 C78.30372782 76.71226054 90.19169307 77.77365076 98.87109375 86.30078125 C105.84095921 94.6053018 108.01670096 103.70631065 108.87109375 114.30078125 C111.84109375 114.63078125 114.81109375 114.96078125 117.87109375 115.30078125 C118.44441976 87.5959042 117.59759646 64.13745487 98.87109375 42.30078125 C98.2575 41.57503906 97.64390625 40.84929688 97.01171875 40.1015625 C84.40495447 26.39035947 65.51503573 18.47066557 47.18859863 17.0065918 C43.33510548 16.87617094 39.49240132 16.8326204 35.63671875 16.83203125 C34.22336538 16.82490206 32.81001481 16.81719923 31.39666748 16.80895996 C28.46211649 16.79564854 25.52783408 16.7938881 22.59326172 16.79980469 C18.85895525 16.80572713 15.12593708 16.77494412 11.39188004 16.73468781 C8.4833702 16.70868938 5.5751673 16.70594351 2.66655731 16.70957947 C1.29041015 16.70790349 -0.08575358 16.69841011 -1.46178436 16.68043518 C-12.63789394 16.55031892 -21.94298336 18.26352869 -29.01953125 27.56640625 Z M-27.75390625 85.55078125 C-33.98438003 94.29096299 -36.22337636 105.03480377 -38.25390625 115.36328125 C-38.72529435 117.75207232 -39.20660746 120.13893259 -39.69921875 122.5234375 C-39.90305176 123.56250244 -40.10688477 124.60156738 -40.31689453 125.67211914 C-41.17673151 128.45560222 -41.73650279 129.66099313 -44.12890625 131.30078125 C-46.1184082 131.57788086 -46.1184082 131.57788086 -48.3671875 131.453125 C-49.18767578 131.42541016 -50.00816406 131.39769531 -50.85351562 131.36914062 C-52.56729007 131.28248184 -54.28084687 131.19139589 -55.99414062 131.09570312 C-61.62458749 130.91521187 -64.64479875 131.52832717 -69.12890625 135.30078125 C-73.24614569 139.30365293 -74.80714944 143.64164682 -75.12890625 149.30078125 C-74.34580489 154.8226498 -71.61427889 158.64303926 -67.30078125 162.0625 C-63.92132415 163.9892768 -60.37921425 164.73298446 -56.58203125 165.46484375 C-53.39509951 166.55083641 -52.64530068 167.2821643 -51.12890625 170.30078125 C-50.48119793 173.3818137 -50.16144012 176.48604629 -49.81640625 179.61328125 C-47.15443381 199.88057139 -37.21887225 218.22777634 -20.91796875 230.8828125 C-3.81281045 243.45855957 15.97208609 248.78216452 37.01318359 246.01953125 C51.92724424 243.52736446 65.74295329 236.45313327 76.87109375 226.30078125 C77.78375 225.52541016 77.78375 225.52541016 78.71484375 224.734375 C92.39255495 212.3311778 99.99317618 192.78370177 101.37109375 174.73828125 C101.4175 173.59166016 101.4175 173.59166016 101.46484375 172.421875 C101.99801659 169.6380976 102.87498328 168.30993819 104.87109375 166.30078125 C107.2890625 165.5 107.2890625 165.5 110.05859375 164.98828125 C116.06122909 163.52344716 119.89286249 161.0198566 123.87109375 156.30078125 C126.52537735 151.41689943 126.16116346 146.58437558 124.87109375 141.30078125 C122.39301934 136.24932187 119.07933471 133.35398166 113.87109375 131.30078125 C110.94442729 130.94482612 108.11902212 131.09460542 105.18359375 131.30078125 C97.78731181 131.81219227 97.78731181 131.81219227 94.38671875 129.9140625 C92.06178104 125.90534259 92.31189809 122.044965 92.30859375 117.48828125 C92.27105501 110.18967681 92.20376973 104.10306158 87.15234375 98.33984375 C86.56453125 97.87320313 85.97671875 97.4065625 85.37109375 96.92578125 C84.78328125 96.44367188 84.19546875 95.9615625 83.58984375 95.46484375 C80.70954675 93.51409714 78.10070603 93.16328493 74.72045898 93.05126953 C73.88270935 93.02085068 73.04495972 92.99043182 72.18182373 92.95909119 C71.27361877 92.93005203 70.36541382 92.90101288 69.4296875 92.87109375 C67.47678598 92.79963473 65.52390581 92.72759038 63.57104492 92.6550293 C62.0365419 92.59960464 62.0365419 92.59960464 60.47103882 92.5430603 C36.61300209 91.65828669 13.4300472 90.04716786 -9.95239258 84.92651367 C-19.34457957 82.39141945 -19.34457957 82.39141945 -27.75390625 85.55078125 Z M201.87109375 188.30078125 C199.61656356 193.93710671 197.47814124 199.41313759 195.49609375 205.11328125 C192.57170478 212.64071147 189.49184631 215.23668355 182.18359375 218.61328125 C175.8124382 220.878581 170.13724916 222.12749489 163.69189453 219.36767578 C160.42666623 217.78029104 157.22012753 216.12343439 154.06445312 214.32739258 C153.32130859 213.91384521 152.57816406 213.50029785 151.8125 213.07421875 C151.14935791 212.68669434 150.48621582 212.29916992 149.80297852 211.89990234 C147.85888439 211.09364305 147.85888439 211.09364305 145.8815918 211.9453125 C143.5659432 213.50651238 141.72237725 215.2244783 139.76171875 217.21484375 C138.63056641 218.35566406 138.63056641 218.35566406 137.4765625 219.51953125 C136.69925781 220.31359375 135.92195313 221.10765625 135.12109375 221.92578125 C134.32832031 222.72757813 133.53554688 223.529375 132.71875 224.35546875 C130.76494882 226.33280971 128.81597272 228.31467034 126.87109375 230.30078125 C127.13849365 230.83445313 127.40589355 231.368125 127.68139648 231.91796875 C128.90279901 234.37298517 130.10572502 236.83663438 131.30859375 239.30078125 C131.72947266 240.13996094 132.15035156 240.97914063 132.58398438 241.84375 C135.75835045 248.39564158 137.70831033 253.59310784 136.05078125 260.93359375 C131.23301708 273.82904636 131.23301708 273.82904636 126.87109375 277.30078125 C122.27760614 279.25222872 117.64637874 280.84040993 112.87109375 282.30078125 C112.87109375 282.96078125 112.87109375 283.62078125 112.87109375 284.30078125 C119.36592466 286.0148999 125.86223675 287.72331285 132.35961914 289.42773438 C134.57057813 290.00844604 136.78119248 290.59047149 138.99145508 291.17382812 C142.16528445 292.01125764 145.34031616 292.84398164 148.515625 293.67578125 C150.00168999 294.06950928 150.00168999 294.06950928 151.51777649 294.47119141 C152.43850449 294.71144043 153.35923248 294.95168945 154.30786133 295.19921875 C155.11838455 295.41239746 155.92890778 295.62557617 156.76399231 295.84521484 C159.00050412 296.40644253 159.00050412 296.40644253 161.87109375 296.30078125 C162.10183594 295.26179688 162.33257812 294.2228125 162.5703125 293.15234375 C165.87851036 278.78230535 170.97058148 265.49405097 183.5703125 256.7109375 C197.93030725 247.9096504 212.00598197 245.05577219 228.609375 247.953125 C236.60748489 250.18493291 244.67120979 254.01299274 250.55078125 260.015625 C251.80286927 261.53328196 251.80286927 261.53328196 253.87109375 261.30078125 C254.14179688 261.87441406 254.4125 262.44804687 254.69140625 263.0390625 C255.89034093 265.3376823 257.25581176 267.36868329 258.74609375 269.48828125 C267.42422317 282.44197687 269.7978801 296.42280182 266.80859375 311.73828125 C263.03420654 326.62117299 254.73610935 337.29515055 241.87109375 345.30078125 C234.35835006 349.01597484 227.55439976 351.44347273 219.1328125 351.3984375 C218.06611328 351.39521484 216.99941406 351.39199219 215.90039062 351.38867188 C214.79759766 351.38029297 213.69480469 351.37191406 212.55859375 351.36328125 C211.43646484 351.35876953 210.31433594 351.35425781 209.15820312 351.34960938 C206.39577865 351.33785438 203.63346377 351.32142202 200.87109375 351.30078125 C203.43883345 365.32339729 206.04102732 379.33970604 208.72259521 393.34103394 C208.988476 394.73199073 209.25300042 396.12320747 209.51617432 397.51467896 C209.88591524 399.46753552 210.26118504 401.41934286 210.63671875 403.37109375 C210.95817871 405.05356201 210.95817871 405.05356201 211.28613281 406.77001953 C211.61805786 409.2243121 211.61805786 409.2243121 212.87109375 410.30078125 C215.56764229 410.37397746 218.23800833 410.39320662 220.93359375 410.36328125 C222.07151367 410.35651367 222.07151367 410.35651367 223.23242188 410.34960938 C225.11201246 410.33778805 226.99156274 410.31985203 228.87109375 410.30078125 C229.43488767 408.90547004 229.99700592 407.50948183 230.55859375 406.11328125 C230.9246875 405.20964844 231.29078125 404.30601562 231.66796875 403.375 C232.50907701 401.22580455 233.30791811 399.05980297 234.07421875 396.8828125 C234.4815625 395.74199219 234.88890625 394.60117187 235.30859375 393.42578125 C235.67855469 392.35585938 236.04851562 391.2859375 236.4296875 390.18359375 C239.05001194 384.94294487 243.38870555 382.79323334 248.62109375 380.55078125 C249.5853125 380.1228125 250.54953125 379.69484375 251.54296875 379.25390625 C260.19455808 376.77622104 265.9520014 378.75648482 273.68359375 382.92578125 C275.32829739 383.80737298 276.98043187 384.67527991 278.640625 385.52734375 C279.35839111 385.91486816 280.07615723 386.30239258 280.81567383 386.70166016 C282.87273174 387.51224692 282.87273174 387.51224692 284.89013672 386.6315918 C288.73864273 384.04615844 291.89245062 380.73319235 295.18359375 377.48828125 C295.93705078 376.77607422 296.69050781 376.06386719 297.46679688 375.33007812 C298.17384766 374.63333984 298.88089844 373.93660156 299.609375 373.21875 C300.25946533 372.58735107 300.90955566 371.95595215 301.5793457 371.30541992 C303.13212932 369.33946173 303.13212932 369.33946173 302.67456055 366.75585938 C301.60332752 363.4825931 300.02190006 360.63412149 298.37109375 357.61328125 C294.67406708 350.42243327 292.59214679 344.9883999 294.76953125 337.0078125 C299.59595968 323.40466231 299.59595968 323.40466231 306.31884766 320.09619141 C309.2283655 318.96434813 312.15287837 317.95543112 315.12109375 316.98828125 C317.12693569 316.3065489 319.13217924 315.62305251 321.13671875 314.9375 C322.46364746 314.49990356 322.46364746 314.49990356 323.81738281 314.0534668 C325.83462561 313.47744743 325.83462561 313.47744743 326.87109375 312.30078125 C326.95857582 310.37410618 326.97806709 308.44426264 326.96875 306.515625 C326.96552734 305.34580078 326.96230469 304.17597656 326.95898438 302.97070312 C326.95060547 301.73900391 326.94222656 300.50730469 326.93359375 299.23828125 C326.92682617 297.38493164 326.92682617 297.38493164 326.91992188 295.49414062 C326.90808983 292.42964008 326.89160548 289.36523404 326.87109375 286.30078125 C321.87301292 283.99788746 316.97533234 281.91295369 311.68359375 280.36328125 C305.53942225 278.3204222 301.86175623 276.6620638 298.44140625 270.88671875 C295.09444765 264.17389219 292.53743045 257.28447041 294.5390625 249.8046875 C296.56915677 244.49329801 299.25789873 239.49286848 302.015625 234.52734375 C303.05560697 231.82054137 302.87623196 230.98837953 301.87109375 228.30078125 C300.19002031 226.20726637 300.19002031 226.20726637 298.0546875 224.19140625 C297.29091797 223.43730469 296.52714844 222.68320313 295.74023438 221.90625 C294.93779297 221.12894531 294.13535156 220.35164063 293.30859375 219.55078125 C292.50228516 218.75800781 291.69597656 217.96523437 290.86523438 217.1484375 C288.87375597 215.19231079 286.87561654 213.24352406 284.87109375 211.30078125 C280.27519471 212.67746508 276.37284812 214.60425602 272.18359375 216.92578125 C264.59941686 220.85090788 258.92524103 221.78216925 250.69921875 219.37109375 C244.66521488 217.11938011 240.24620407 214.99627991 236.87109375 209.30078125 C235.79168468 206.71834597 234.83514192 204.13152683 233.9609375 201.47265625 C232.43139162 197.0210747 230.61923913 192.6711447 228.87109375 188.30078125 C219.96109375 188.30078125 211.05109375 188.30078125 201.87109375 188.30078125 Z M-8.12890625 257.30078125 C-8.65036091 268.54102624 -7.33240532 278.30108501 -0.12890625 287.30078125 C6.83211985 294.7492315 14.7962704 298.56382048 24.87109375 299.61328125 C34.83788754 299.35271148 42.87948135 295.45778631 49.84765625 288.5234375 C58.35581562 279.17760221 59.39026163 269.56852587 58.87109375 257.30078125 C57.36869141 257.71650391 57.36869141 257.71650391 55.8359375 258.140625 C54.49354966 258.50673077 53.15109832 258.87260376 51.80859375 259.23828125 C51.15181641 259.42068359 50.49503906 259.60308594 49.81835938 259.79101562 C31.99084624 264.62113002 13.48641052 263.16894316 -4.12890625 258.30078125 C-5.46137381 257.96400374 -6.79416486 257.62843094 -8.12890625 257.30078125 Z M185.1875 278.375 C181.98343849 283.06224725 179.43933238 288.6183949 178.87109375 294.30078125 C178.73832031 294.955625 178.60554688 295.61046875 178.46875 296.28515625 C178.13586492 298.92999662 178.13914757 300.72416145 178.87109375 303.30078125 C181.15723723 305.74611461 183.65220345 307.73953995 186.25390625 309.84375 C191.3684178 314.64528398 194.53303878 321.37456945 195.55859375 328.30078125 C197.1447096 331.9261889 198.00064259 332.22615201 201.55859375 333.73828125 C211.10234639 336.6314661 221.54208455 336.87388262 230.6640625 332.5625 C240.89578053 326.71321695 247.32303682 319.61817308 250.87109375 308.30078125 C253.15313877 298.22935589 251.60414452 288.65169294 246.328125 279.67578125 C240.43282953 271.68947708 232.62650252 265.63787783 222.87109375 263.30078125 C207.33917164 261.65878733 195.08602847 266.21086828 185.1875 278.375 Z M-23.12890625 281.30078125 C-24.33440919 282.51229667 -25.51783372 283.74581014 -26.69140625 284.98828125 C-37.57689408 295.89300139 -51.63859389 298.26066908 -66.171875 302.015625 C-67.47469983 302.35609413 -68.77737519 302.69713565 -70.07991028 303.03871155 C-75.53588504 304.46938238 -80.99246884 305.89748838 -86.45385742 307.30737305 C-89.82361593 308.17768689 -93.1903387 309.05899676 -96.5554142 309.94723701 C-98.42870655 310.43852543 -100.30504123 310.91816733 -102.18144226 311.39744568 C-116.67495874 315.16838433 -116.67495874 315.16838433 -126.91070557 325.38313293 C-128.38167638 328.90617768 -129.22176847 332.44828888 -129.99511719 336.1706543 C-130.16284512 336.95171634 -130.33057304 337.73277838 -130.50338364 338.53750896 C-131.05472728 341.12336724 -131.59342492 343.7115938 -132.12890625 346.30078125 C-132.31280411 347.18631809 -132.49670197 348.07185493 -132.68617249 348.98422623 C-135.51997062 362.67383633 -138.2406825 376.3868021 -140.97558594 390.09643555 C-141.91156524 394.78466566 -142.85459926 399.47139358 -143.80371094 404.15698242 C-144.9605679 409.86843688 -146.10509447 415.58223487 -147.2410202 421.2978878 C-147.67213606 423.45667944 -148.10745564 425.61463641 -148.54724884 427.77167702 C-153.55744785 447.45786671 -153.55744785 447.45786671 -149.52734375 466.51953125 C-145.26823454 471.94454186 -140.83990493 475.5405193 -134.12890625 477.30078125 C-130.64978743 477.56559068 -127.18665667 477.53385453 -123.69921875 477.49609375 C-122.21372025 477.49184891 -122.21372025 477.49184891 -120.69821167 477.48751831 C-117.54998449 477.47636595 -114.40204676 477.45127032 -111.25390625 477.42578125 C-109.11328537 477.41574507 -106.97266001 477.40662033 -104.83203125 477.3984375 C-99.59755828 477.37644283 -94.36325295 477.34301458 -89.12890625 477.30078125 C-89.67478621 464.18706018 -91.23938141 451.23426223 -92.85794449 438.21626472 C-93.33347669 434.38637492 -93.80206645 430.55569152 -94.26876831 426.72471619 C-95.59510023 415.84477942 -96.93109151 404.96605249 -98.27783203 394.08862305 C-99.10514789 387.4058371 -99.92154364 380.72178828 -100.73217392 374.03695488 C-101.04171111 371.50123542 -101.35509393 368.96598223 -101.67245865 366.43123055 C-102.11544002 362.89151369 -102.54566443 359.3504554 -102.97314453 355.80883789 C-103.1060791 354.77229568 -103.23901367 353.73575348 -103.37597656 352.6678009 C-104.29501567 344.88482681 -105.16886352 336.83405919 -100.12890625 330.30078125 C-97.04343897 326.44394715 -93.86489461 325.21589196 -89.12890625 324.30078125 C-85.95068344 324.0293046 -82.79093822 324.02623035 -79.60253906 324.04008484 C-78.19215048 324.03434652 -78.19215048 324.03434652 -76.7532692 324.02849227 C-73.61279915 324.01820008 -70.47251322 324.02214723 -67.33203125 324.02612305 C-65.07637361 324.02177454 -62.82071745 324.01659093 -60.56506348 324.01063538 C-54.44535178 323.9972505 -48.32570187 323.99666605 -42.20597839 323.99919868 C-37.09644702 324.00026853 -31.98692814 323.99538476 -26.87739944 323.99059325 C-14.13556518 323.9788662 -1.39377561 323.9797222 11.34805822 323.98615006 C22.40714616 323.99132069 33.46614606 323.98005847 44.52521658 323.96105184 C55.89001761 323.94166995 67.25476484 323.93370932 78.61958694 323.9371751 C84.99638188 323.93898889 91.37309614 323.93634184 97.74987793 323.92246056 C103.74499892 323.9098981 109.73994341 323.91181146 115.73506165 323.92487144 C117.93488118 323.92724004 120.13471307 323.92449243 122.33451843 323.91624832 C125.33812654 323.9058036 128.34113988 323.91386351 131.34472656 323.92655945 C132.21447994 323.91918516 133.08423332 323.91181088 133.98034286 323.90421313 C140.70530435 323.96398575 145.37004802 325.24436587 150.68359375 329.61328125 C156.62221347 336.90929976 154.75267847 345.58958524 153.87109375 354.30078125 C153.05165205 361.96388652 152.11920859 369.61295043 151.17262077 377.26123238 C150.70186934 381.06546911 150.23701762 384.87038825 149.77357483 388.67552185 C148.87384014 396.05480922 147.96809524 403.43334763 147.06084442 410.81171417 C145.82337894 420.87608157 144.58912403 430.94082399 143.36270332 441.00654411 C142.90526614 444.74882266 142.44273793 448.49044899 141.97996521 452.23207092 C141.69986308 454.52520865 141.41998927 456.81837428 141.14038086 459.11157227 C141.01104156 460.14595428 140.88170227 461.1803363 140.7484436 462.24606323 C140.13661963 467.30743908 139.72668304 472.20251943 139.87109375 477.30078125 C146.11494379 477.40016301 152.35832647 477.472492 158.6027832 477.52050781 C160.72395862 477.54053871 162.8450794 477.5677715 164.96606445 477.60253906 C168.02699316 477.65143339 171.08718751 477.67383577 174.1484375 477.69140625 C175.55524025 477.72237396 175.55524025 477.72237396 176.99046326 477.75396729 C184.34906946 477.75643682 190.34488275 476.0918669 196.17578125 471.4765625 C200.54430965 466.29301015 203.96789018 461.0847259 203.82598591 454.0714283 C203.10339202 447.52481153 201.98884997 441.10346303 200.7097168 434.64404297 C200.49166382 433.52401886 200.27361084 432.40399475 200.0489502 431.25003052 C199.33199341 427.57582562 198.6079387 423.90306952 197.8828125 420.23046875 C197.37808367 417.66319221 196.87343093 415.09590072 196.36885071 412.52859497 C195.31270419 407.16005332 194.25167541 401.79249024 193.1887207 396.42529297 C191.96370584 390.2389885 190.75098838 384.05035742 189.54380196 377.86055171 C188.37664396 371.87952001 187.19660228 365.90109692 186.01185036 359.92352676 C185.51169691 357.39100817 185.01535795 354.85773307 184.52295494 352.32369614 C183.83319022 348.77976095 183.12873631 345.23904473 182.4206543 341.69873047 C182.22153946 340.65851746 182.02242462 339.61830444 181.817276 338.54656982 C180.15238527 330.3511051 177.86614978 322.9403851 171.08587646 317.59375 C162.55633278 312.61428481 151.28940946 311.02252434 141.79296875 308.55078125 C140.48777566 308.20780945 139.1827041 307.86437485 137.87774658 307.52050781 C132.41039642 306.08020465 126.94188865 304.64441995 121.47070312 303.21875 C118.09529366 302.33886288 114.72192946 301.45147366 111.34970856 300.55944824 C109.46966857 300.06439488 107.58748866 299.5774907 105.70526123 299.09082031 C97.58793317 296.93910677 89.3592891 294.68320624 82.68359375 289.36328125 C82.09191406 288.90050781 81.50023437 288.43773437 80.890625 287.9609375 C78.2061937 285.75419997 75.53728999 283.52952521 72.87109375 281.30078125 C72.44699219 282.21859375 72.02289063 283.13640625 71.5859375 284.08203125 C64.95531388 298.10614437 57.04761556 306.97581825 42.12109375 312.67578125 C28.28753556 317.26084161 15.02028216 315.64455099 1.828125 309.8359375 C-10.16235611 303.61102458 -17.31374534 293.68262359 -22.12890625 281.30078125 C-22.45890625 281.30078125 -22.78890625 281.30078125 -23.12890625 281.30078125 Z M-87.12890625 340.30078125 C-88.22910922 343.60139016 -88.06040211 345.28306575 -87.64846802 348.70401001 C-87.51666138 349.82577133 -87.38485474 350.94753265 -87.24905396 352.10328674 C-87.09741791 353.33457809 -86.94578186 354.56586945 -86.78955078 355.83447266 C-86.63524597 357.13052933 -86.48094116 358.426586 -86.32196045 359.76191711 C-85.89828449 363.31824306 -85.46619119 366.87350044 -85.03236628 370.42860079 C-84.5801061 374.14454231 -84.13475229 377.86131199 -83.68844604 381.57797241 C-82.93805859 387.81784959 -82.18233991 394.05706337 -81.42333984 400.29589844 C-80.54480301 407.51774432 -79.67407439 414.74049832 -78.80765069 421.96380675 C-77.97507175 428.90387205 -77.137585 435.84333598 -76.29763412 442.78251266 C-75.93969156 445.74005845 -75.58337957 448.69779404 -75.22833633 451.65568924 C-74.73300163 455.77971519 -74.23043967 459.90282833 -73.72705078 464.02587891 C-73.5794632 465.26121872 -73.43187561 466.49655853 -73.27981567 467.76933289 C-73.14236938 468.88545456 -73.0049231 470.00157623 -72.86331177 471.15151978 C-72.74494524 472.12748926 -72.62657871 473.10345875 -72.50462532 474.10900307 C-72.35115382 476.27102365 -72.35115382 476.27102365 -71.12890625 477.30078125 C-68.62477108 477.39851237 -66.14824434 477.43073806 -63.6436615 477.42103577 C-62.45406612 477.4223174 -62.45406612 477.4223174 -61.24043852 477.42362493 C-58.56253229 477.42528215 -55.88468764 477.41975444 -53.20678711 477.41430664 C-51.29533388 477.41402479 -49.38388054 477.41418245 -47.47242737 477.41474915 C-42.26603166 477.41503722 -37.05965877 477.40913886 -31.85326838 477.40217519 C-26.41866466 477.39594333 -20.98406048 477.39533799 -15.54945374 477.39414978 C-5.25051867 477.39103597 5.04840583 477.38282191 15.34733623 477.37280029 C27.06902132 477.3616407 38.7907069 477.35612909 50.51239598 477.35110486 C74.63196777 477.34063933 98.75153017 477.32303893 122.87109375 477.30078125 C124.98338336 460.02989074 127.08733041 442.75800726 129.18132877 425.48488998 C130.15378453 417.46486105 131.128976 409.44518243 132.1105957 401.42626953 C132.96608373 394.4376768 133.81645151 387.44848346 134.66065496 380.45851827 C135.10790759 376.75679374 135.55773271 373.05542261 136.01368904 369.35475922 C136.52236763 365.2253986 137.01961063 361.09473882 137.51586914 356.96386719 C137.74567978 355.11996651 137.74567978 355.11996651 137.98013306 353.23881531 C138.11338486 352.11423416 138.24663666 350.98965302 138.38392639 349.83099365 C138.56229333 348.36534281 138.56229333 348.36534281 138.74426365 346.87008286 C139.00895874 344.03037 139.00895874 344.03037 137.87109375 340.30078125 C63.62109375 340.30078125 -10.62890625 340.30078125 -87.12890625 340.30078125 Z " fill="#000000" transform="translate(169.12890625,8.69921875)"/>
<path d="M0 0 C5.77939061 5.5847164 8.99322014 12.9826229 9.375 21 C8.99180591 28.72519288 6.24409075 34.66279967 0.96875 40.2734375 C-4.97698818 45.48775551 -11.79726008 47.33850969 -19.56640625 47.2109375 C-27.02103507 46.5647899 -33.0856702 43.66003656 -38 38 C-42.56717769 31.29121826 -44.66036131 25.1884802 -44 17 C-41.50123165 7.98889755 -38.32245376 1.86410119 -30.1328125 -2.92578125 C-20.01959984 -8.01943231 -9.18979686 -6.39635256 0 0 Z M-25 15 C-26.92459909 17.51034664 -27 18.75386786 -27 21.9375 C-25.61123673 26.19058752 -23.78933539 27.68429504 -20 30 C-15.26081225 30.24943093 -13.57614408 29.50412607 -10 26.375 C-7.70322018 23.13391424 -7.70322018 23.13391424 -7.9375 19.375 C-9.09623093 15.69432528 -9.85930622 14.20697401 -13 12 C-18.31523378 10.15122303 -20.79293419 11.46224011 -25 15 Z " fill="#000000" transform="translate(212,397)"/>
</svg>
