<?xml version="1.0" encoding="UTF-8"?>
<svg version="1.1" xmlns="http://www.w3.org/2000/svg" width="512" height="512">
<path d="M0 0 C1.15835647 -0.00679667 2.31671294 -0.01359334 3.51017112 -0.02059597 C6.72157329 -0.03630059 9.93265858 -0.03855096 13.14408696 -0.03501284 C16.6091155 -0.03440046 20.07406897 -0.05096053 23.5390625 -0.06518555 C30.32630334 -0.09009946 37.11346602 -0.09834981 43.90074877 -0.10002268 C49.4183072 -0.10144848 54.93583985 -0.10761429 60.45339012 -0.11712456 C76.09919523 -0.14354313 91.74493861 -0.15738291 107.39076618 -0.15513314 C108.23414412 -0.15501327 109.07752206 -0.1548934 109.94645691 -0.1547699 C111.21306982 -0.15458593 111.21306982 -0.15458593 112.50527086 -0.15439826 C126.18929142 -0.15317897 139.87306428 -0.18188508 153.55701319 -0.224185 C167.610062 -0.26728283 181.66299002 -0.28799519 195.71610659 -0.28540367 C203.60489943 -0.28440795 211.49343262 -0.29264015 219.38216591 -0.32493782 C226.09909181 -0.35226182 232.81564039 -0.35877196 239.53259782 -0.33840955 C242.95861365 -0.32861745 246.38390573 -0.32842737 249.8098526 -0.3544693 C253.52744746 -0.37758526 257.24314018 -0.36372863 260.96069336 -0.34057617 C262.03900935 -0.35600686 263.11732533 -0.37143755 264.22831756 -0.38733584 C271.49555761 -0.28728721 275.42436302 1.40020108 280.67082214 6.40113831 C281.44643147 7.09369248 282.22204081 7.78624666 283.02115345 8.49978733 C283.65882491 9.13670474 284.29649637 9.77362215 284.95349121 10.42984009 C286.0741523 11.5420417 286.0741523 11.5420417 287.217453 12.67671204 C288.00684265 13.47015015 288.7962323 14.26358826 289.60954285 15.08106995 C290.46420639 15.93222885 291.31886993 16.78338776 292.19943237 17.66033936 C294.52103751 19.97469738 296.83814545 22.29343664 299.15293908 24.61460423 C301.58551116 27.05227513 304.02299932 29.48502276 306.45968628 31.9185791 C310.54579088 36.00105738 314.62768776 40.08770706 318.7071991 44.17677307 C323.41710543 48.89758328 328.13420266 53.61111623 332.85505611 58.32097727 C336.92006957 62.37690587 340.98116167 66.4367299 345.03901929 70.49981779 C347.45759037 72.92149916 349.8774742 75.34182722 352.30091286 77.75863838 C354.99850107 80.45115115 357.68960116 83.14998556 360.3790741 85.8506012 C361.1785849 86.64606354 361.9780957 87.44152588 362.80183411 88.26109314 C363.53484238 88.99974106 364.26785065 89.73838898 365.02307129 90.49942017 C365.65885762 91.13596055 366.29464396 91.77250093 366.94969654 92.42833042 C371.70178164 97.87531868 372.10018537 101.84535112 372.03158569 108.84799194 C372.03414897 109.80373177 372.03671224 110.75947159 372.03935319 111.74417323 C372.04429715 114.94876579 372.02778775 118.15288792 372.01139832 121.35743713 C372.01055218 123.65371184 372.01102693 125.94998736 372.01272583 128.2462616 C372.01358772 134.48344081 371.9959304 140.72044747 371.97500396 146.95758653 C371.95626956 153.47454345 371.95448927 159.99150419 371.95092773 166.50848389 C371.94265827 177.44791241 371.92391061 188.38727711 371.8971405 199.32667542 C371.86959759 210.59359928 371.84836515 221.86050593 371.83561707 233.12745667 C371.83482889 233.82211302 371.83404072 234.51676937 371.83322867 235.23247591 C371.82931352 238.71741124 371.8255224 242.20234668 371.82179296 245.6872822 C371.79069986 274.59194283 371.73764329 303.49653905 371.67082214 332.40113831 C372.37054138 332.38019104 373.07026062 332.35924377 373.79118347 332.33766174 C377.02174478 332.25350896 380.2520744 332.2021676 383.48332214 332.15113831 C384.58353699 332.11762268 385.68375183 332.08410706 386.81730652 332.04957581 C399.55405011 331.89928975 409.13609531 336.02303463 418.67082214 344.40113831 C426.8304942 353.07552066 431.97669918 363.24085988 431.96134949 375.2514801 C431.97142532 376.39671898 431.97142532 376.39671898 431.98170471 377.56509399 C432.00062449 380.07691551 432.00460631 382.5884688 432.00675964 385.10035706 C432.01319343 386.85905056 432.01992222 388.61774302 432.02693176 390.37643433 C432.03889071 394.06071958 432.04261418 397.74491119 432.04142761 401.42921448 C432.04122489 406.12521097 432.06848483 410.82059913 432.10297203 415.51645184 C432.12533407 419.14984839 432.12926226 422.78310093 432.12820816 426.41655922 C432.13055176 428.14633587 432.13930449 429.87611725 432.15487289 431.60582542 C432.27774771 446.67216539 429.94426971 457.70940949 419.67082214 469.40113831 C411.75298618 476.84915503 401.7084845 482.71080493 390.61613464 482.59645081 C389.50754089 482.59000549 388.39894714 482.58356018 387.25675964 482.57691956 C386.11465027 482.56016174 384.97254089 482.54340393 383.79582214 482.52613831 C382.63050964 482.51711487 381.46519714 482.50809143 380.26457214 482.49879456 C377.39977637 482.47531262 374.5354068 482.44246972 371.67082214 482.40113831 C371.69176941 483.00586975 371.71271667 483.6106012 371.73429871 484.23365784 C371.8179116 486.99764602 371.86962268 489.76136743 371.92082214 492.52613831 C371.95433777 493.47746643 371.98785339 494.42879456 372.02238464 495.40895081 C372.10349543 501.24892743 371.7957889 504.89734807 367.67082214 509.40113831 C363.76477722 512.24727021 361.02940194 512.77708913 356.23144627 512.78145504 C354.92240127 512.78989498 353.61335628 512.79833492 352.26464325 512.80703062 C350.8135737 512.80123547 349.36250528 512.79515444 347.91143799 512.78881836 C346.36871958 512.79299077 344.82600425 512.79846777 343.28329462 512.80513817 C339.04192545 512.81962379 334.80075008 512.81533837 330.55937016 512.80797136 C325.98600306 512.80324969 321.41267851 512.81574064 316.83932495 512.82598877 C307.8790148 512.84320169 298.91877469 512.84401163 289.95845229 512.83877587 C282.67695979 512.83473763 275.39548802 512.8361736 268.11399651 512.84152412 C266.56063353 512.84264676 266.56063353 512.84264676 264.97588949 512.84379207 C262.87225354 512.84532352 260.76861759 512.84686186 258.66498166 512.84840704 C238.92902418 512.86214106 219.19310632 512.85668802 199.45714974 512.84522182 C181.39400668 512.8352881 163.33096604 512.84823095 145.26783878 512.87215602 C126.7286574 512.89652698 108.18952376 512.90615985 89.65032667 512.89950329 C79.23873793 512.89600666 68.82722798 512.89827236 58.41565132 512.91575432 C49.55264273 512.93045125 40.6897684 512.93114463 31.8267625 512.91368341 C27.30348014 512.90515038 22.78043788 512.90307983 18.25716782 512.91833496 C14.11749953 512.93212371 9.97827837 512.92749435 5.83863633 512.90809572 C4.34003618 512.90431746 2.8414007 512.90731003 1.34283186 512.91770738 C-0.69273041 512.93082767 -2.72841327 512.91694031 -4.76396084 512.90170956 C-6.46066265 512.90154855 -6.46066265 512.90154855 -8.19164127 512.90138429 C-12.90549747 512.14981134 -16.04830984 509.84514375 -19.18163013 506.31274891 C-20.94162059 501.84722056 -20.73115396 497.57285093 -20.68994141 492.81536865 C-20.69250468 491.73712226 -20.69506796 490.65887586 -20.6977089 489.54795533 C-20.70265699 485.92879667 -20.68613645 482.31005358 -20.66975403 478.69093323 C-20.66890798 476.09909576 -20.66938246 473.50725758 -20.67108154 470.91542053 C-20.67265412 465.33222323 -20.66324656 459.74913115 -20.64636803 454.16596031 C-20.62198048 446.09366366 -20.61417301 438.02141787 -20.61040405 429.94908837 C-20.60383918 416.85210287 -20.58387705 403.75517344 -20.55549622 390.65821838 C-20.52795657 377.93621603 -20.50672253 365.21422891 -20.49397278 352.49220276 C-20.49318461 351.70793654 -20.49239644 350.92367032 -20.49158438 350.11563846 C-20.48766925 346.18118099 -20.48387813 342.24672341 -20.48014867 338.31226575 C-20.44905165 305.67518245 -20.39621488 273.03816788 -20.32917786 240.40113831 C-21.02889709 240.42208557 -21.72861633 240.44303284 -22.44953918 240.46461487 C-25.68010049 240.54876765 -28.91043011 240.60010901 -32.14167786 240.65113831 C-33.2418927 240.68465393 -34.34210754 240.71816956 -35.47566223 240.75270081 C-48.21240582 240.90298687 -57.79445102 236.77924198 -67.32917786 228.40113831 C-75.48884991 219.72675596 -80.63505489 209.56141673 -80.6197052 197.55079651 C-80.62642242 196.78730392 -80.63313965 196.02381134 -80.64006042 195.23718262 C-80.6589802 192.7253611 -80.66296202 190.21380781 -80.66511536 187.70191956 C-80.67154914 185.94322605 -80.67827793 184.18453359 -80.68528748 182.42584229 C-80.69724642 178.74155703 -80.70096989 175.05736542 -80.69978333 171.37306213 C-80.6995806 166.67706564 -80.72684054 161.98167748 -80.76132774 157.28582478 C-80.78368978 153.65242822 -80.78761798 150.01917568 -80.78656387 146.38571739 C-80.78890747 144.65594074 -80.7976602 142.92615936 -80.81322861 141.19645119 C-80.93610342 126.13011123 -78.60262542 115.09286713 -68.32917786 103.40113831 C-60.41134189 95.95312158 -50.36684021 90.09147168 -39.27449036 90.20582581 C-38.16589661 90.21227112 -37.05730286 90.21871643 -35.91511536 90.22535706 C-34.20195129 90.25049377 -34.20195129 90.25049377 -32.45417786 90.27613831 C-31.28886536 90.28516174 -30.12355286 90.29418518 -28.92292786 90.30348206 C-26.05813208 90.32696399 -23.19376251 90.3598069 -20.32917786 90.40113831 C-20.3380603 89.39968781 -20.34694275 88.3982373 -20.35609436 87.36643982 C-20.43724302 77.92060804 -20.4971734 68.47484715 -20.53642654 59.02874565 C-20.55728561 54.17258531 -20.58557256 49.31670678 -20.63093567 44.46070862 C-20.67445337 39.77282574 -20.69832761 35.08521363 -20.70868683 30.39714432 C-20.71606757 28.61018233 -20.73048057 26.82323487 -20.75209808 25.0363884 C-20.7812113 22.52988112 -20.78513063 20.02448716 -20.78327942 17.51783752 C-20.79766052 16.78199936 -20.81204163 16.04616119 -20.82685852 15.2880249 C-20.78613103 10.17885068 -19.63208432 7.2767998 -16.32917786 3.40113831 C-11.49519886 -0.70264802 -6.00887799 -0.02572891 0 0 Z M9.67082214 30.40113831 C9.67082214 50.20113831 9.67082214 70.00113831 9.67082214 90.40113831 C19.57082214 90.40113831 29.47082214 90.40113831 39.67082214 90.40113831 C39.88030892 84.04477047 39.88030892 84.04477047 40.0587616 77.68751526 C40.26330141 72.7482023 40.65356961 69.50233679 43.67082214 65.40113831 C43.67082214 64.74113831 43.67082214 64.08113831 43.67082214 63.40113831 C49.51935432 60.87204331 56.65450914 59.97794312 62.76530457 62.14332581 C64.81486083 63.28193845 66.69691977 64.54294076 68.60832214 65.90113831 C69.38659363 66.42175842 70.16486511 66.94237854 70.96672058 67.47877502 C72.80139548 68.70906633 74.62844887 69.95076489 76.44963074 71.20094299 C80.12285415 73.70989323 83.8255212 76.17147155 87.53410339 78.62770081 C93.61280079 82.65819964 99.68325526 86.70071475 105.74504089 90.75660706 C106.54083557 91.28905533 107.33663025 91.8215036 108.15653992 92.37008667 C112.46266051 95.25205595 116.76750513 98.13592437 121.07170105 101.02076721 C125.58420184 104.04514284 130.09880745 107.0663555 134.61454773 110.08589172 C137.20054905 111.81670326 139.78384552 113.55150139 142.36711121 115.28639221 C143.94867739 116.3443808 145.53037615 117.40217122 147.11222839 118.45973206 C148.19719353 119.19078911 148.19719353 119.19078911 149.30407715 119.93661499 C152.07001239 121.78087168 154.50133213 123.34464164 157.67082214 124.40113831 C160.65296158 130.52237188 160.31703457 137.3854803 158.92082214 143.90113831 C157.39826349 146.94625562 156.67791537 146.96173723 153.67082214 148.40113831 C151.2684151 149.92795404 148.88714729 151.47382405 146.51457214 153.04566956 C145.43651054 153.75606133 145.43651054 153.75606133 144.33666992 154.48080444 C141.94670146 156.05637566 139.5587912 157.63503873 137.17082214 159.21363831 C135.49282659 160.32046734 133.81468246 161.42707114 132.13639832 162.53346252 C127.60561449 165.52101307 123.07650167 168.5110875 118.54771423 171.50166321 C110.65891435 176.71026279 102.76730937 181.91461037 94.87541199 187.11851501 C92.03578967 188.99153071 89.19700393 190.8658089 86.35832214 192.74024963 C82.17021711 195.50532326 77.97531413 198.25985489 73.77815247 201.01115417 C71.89952231 202.25028887 70.03253259 203.50455735 68.16960144 204.7671051 C67.21094177 205.40559387 66.2522821 206.04408264 65.26457214 206.70191956 C64.4943573 207.2243927 63.72414246 207.74686584 62.93058777 208.28517151 C57.52770473 210.95334117 51.78120402 209.84542923 46.10832214 208.65113831 C42.29414048 206.69514771 41.97275216 204.30692835 40.67082214 200.40113831 C40.52435074 198.84847177 40.4238814 197.29118168 40.35441589 195.73316956 C40.29725403 194.52624451 40.29725403 194.52624451 40.23893738 193.29493713 C40.17428284 191.76969421 40.17428284 191.76969421 40.10832214 190.21363831 C39.96394714 186.97551331 39.81957214 183.73738831 39.67082214 180.40113831 C29.77082214 180.40113831 19.87082214 180.40113831 9.67082214 180.40113831 C9.67082214 280.06113831 9.67082214 379.72113831 9.67082214 482.40113831 C119.23082214 482.40113831 228.79082214 482.40113831 341.67082214 482.40113831 C341.67082214 462.60113831 341.67082214 442.80113831 341.67082214 422.40113831 C331.77082214 422.40113831 321.87082214 422.40113831 311.67082214 422.40113831 C311.46133536 428.75750614 311.46133536 428.75750614 311.28288269 435.11476135 C311.07834288 440.05407431 310.68807468 443.29993982 307.67082214 447.40113831 C307.67082214 448.06113831 307.67082214 448.72113831 307.67082214 449.40113831 C301.65062962 452.0044648 294.50352374 452.89861273 288.28923035 450.47062683 C285.92318139 449.11795412 283.7108048 447.64731925 281.48332214 446.07691956 C280.63815536 445.51143906 279.79298859 444.94595856 278.92221069 444.36334229 C276.15501427 442.50359564 273.41351491 440.60929287 270.67082214 438.71363831 C268.74181275 437.40727567 266.81120271 436.10327376 264.8790741 434.80152893 C260.84930876 432.08077347 256.82981158 429.34574932 252.8177948 426.59889221 C246.72301272 422.42912251 240.59732333 418.30659231 234.46379089 414.19410706 C227.03943267 409.21195087 219.61916902 404.22397571 212.21379089 399.21363831 C211.44898911 398.6971019 210.68418732 398.18056549 209.89620972 397.64837646 C206.47490758 395.331049 203.09220675 392.98444337 199.7618866 390.53785706 C197.02290521 388.21159652 197.02290521 388.21159652 194.67082214 388.40113831 C191.96065891 381.96450063 191.97486325 375.64894649 193.42082214 368.90113831 C194.90508515 365.9326123 195.74613454 365.74911722 198.67082214 364.40113831 C199.95359168 363.61144977 201.22335306 362.80036628 202.48161316 361.97218323 C203.22496918 361.48429825 203.9683252 360.99641327 204.73420715 360.4937439 C205.53957916 359.96173874 206.34495117 359.42973358 207.17472839 358.88160706 C208.02989044 358.31886581 208.88505249 357.75612457 209.76612854 357.17633057 C212.59024083 355.31635282 215.41189735 353.45268981 218.23332214 351.58863831 C219.1974704 350.9527478 220.16161865 350.3168573 221.15498352 349.66169739 C238.23869925 338.39273704 255.22924495 326.98834504 272.17106628 315.50733948 C273.47813034 314.62233513 273.47813034 314.62233513 274.81159973 313.7194519 C276.43263214 312.62149933 278.05286957 311.5223717 279.6721344 310.42181396 C287.47953094 305.13278626 292.03496563 302.59579546 301.67082214 303.40113831 C307.08864393 304.54173237 307.08864393 304.54173237 308.98332214 307.33863831 C310.10951945 310.71723024 310.82868135 313.51312337 310.98722839 317.06910706 C311.0253363 317.87372375 311.06344421 318.67834045 311.10270691 319.50733948 C311.14580994 320.52416809 311.18891296 321.5409967 311.23332214 322.58863831 C311.37769714 325.82676331 311.52207214 329.06488831 311.67082214 332.40113831 C321.57082214 332.40113831 331.47082214 332.40113831 341.67082214 332.40113831 C341.67082214 262.44113831 341.67082214 192.48113831 341.67082214 120.40113831 C314.94082214 120.07113831 288.21082214 119.74113831 260.67082214 119.40113831 C255.67082214 116.40113831 255.67082214 116.40113831 252.67082214 111.40113831 C252.34082214 84.67113831 252.01082214 57.94113831 251.67082214 30.40113831 C171.81082214 30.40113831 91.95082214 30.40113831 9.67082214 30.40113831 Z M281.67082214 53.40113831 C281.67082214 65.61113831 281.67082214 77.82113831 281.67082214 90.40113831 C293.88082214 90.40113831 306.09082214 90.40113831 318.67082214 90.40113831 C314.07668296 84.98373877 314.07668296 84.98373877 309.25163269 79.85255432 C308.65469101 79.25246048 308.05774933 78.65236664 307.44271851 78.03408813 C306.82060989 77.41400375 306.19850128 76.79391937 305.55754089 76.15504456 C304.9025209 75.49906784 304.24750092 74.84309113 303.57263184 74.16723633 C302.20156019 72.79548928 300.82924541 71.42498371 299.45573425 70.05567932 C297.34331113 67.94866574 295.23634607 65.83629805 293.12980652 63.72340393 C291.79353896 62.38779625 290.45696173 61.05249831 289.12004089 59.71754456 C288.48781113 59.08329056 287.85558136 58.44903656 287.20419312 57.79556274 C284.81290008 54.81617512 284.81290008 54.81617512 281.67082214 53.40113831 Z M69.67082214 104.40113831 C69.54127136 105.28865784 69.54127136 105.28865784 69.40910339 106.19410706 C68.42250727 111.74257885 67.23645687 114.74863052 62.67082214 118.40113831 C59.29327478 120.08991199 55.45859571 119.56367953 51.74235535 119.57472229 C50.35426918 119.58475281 50.35426918 119.58475281 48.93814087 119.59498596 C46.92361085 119.60905836 44.90906468 119.6209454 42.89451027 119.63093376 C39.70409957 119.64732197 36.51380776 119.67056096 33.32345581 119.6958313 C24.25058407 119.76665331 15.17766264 119.82663673 6.10466003 119.87794495 C0.55854491 119.90979008 -4.98743564 119.95108497 -10.53344154 119.99814034 C-12.64606611 120.01413326 -14.75872171 120.02646731 -16.87138939 120.03504753 C-19.83231074 120.04724198 -22.79291777 120.07141111 -25.7537384 120.09815979 C-27.05778122 120.0990435 -27.05778122 120.0990435 -28.38816833 120.09994507 C-34.76106457 120.17598502 -40.145013 120.50819543 -45.14167786 124.83863831 C-50.49157438 131.10565995 -50.4774232 136.34485412 -50.39167786 144.21363831 C-50.38716614 145.00190002 -50.38265442 145.79016174 -50.37800598 146.60231018 C-50.36629098 148.53528591 -50.34835784 150.46822223 -50.32917786 152.40113831 C-49.55038773 152.23946167 -48.7715976 152.07778503 -47.96920776 151.91120911 C-43.32145922 151.25992852 -38.77607896 151.2455072 -34.08869934 151.24000549 C-32.56324493 151.23255814 -32.56324493 151.23255814 -31.00697327 151.22496033 C-27.65473243 151.21039642 -24.30253883 151.20354816 -20.95027161 151.19801331 C-18.61669921 151.19225938 -16.28312682 151.18650167 -13.94955444 151.18074036 C-9.06315389 151.1702484 -4.17676972 151.16439317 0.7096405 151.16090393 C6.97323443 151.15540723 13.23661229 151.1313464 19.50013828 151.10293198 C24.31708413 151.08432327 29.13397758 151.07910105 33.95095634 151.07756805 C36.26064682 151.07453963 38.57033634 151.06650475 40.87999153 151.05338287 C44.10674255 151.03635136 47.33296058 151.03819514 50.55973816 151.04469299 C51.9913755 151.03087082 51.9913755 151.03087082 53.45193481 151.01676941 C58.33969062 151.04764274 61.72682161 151.17333513 65.67082214 154.40113831 C68.62880193 158.20425517 69.20580297 161.65794278 69.67082214 166.40113831 C78.68723668 161.68893976 86.99475651 155.95150831 95.42082214 150.27613831 C97.66204973 148.77024567 99.90395879 147.26538221 102.14671326 145.76176453 C103.53342516 144.83168965 104.91918168 143.90018819 106.30381775 142.96702576 C109.04672849 141.1242844 111.75716357 139.35207485 114.63273621 137.71803284 C115.30530457 137.28345764 115.97787292 136.84888245 116.67082214 136.40113831 C116.67082214 135.74113831 116.67082214 135.08113831 116.67082214 134.40113831 C114.53333539 132.81733788 112.39880758 131.36254962 110.16300964 129.92848206 C109.48593964 129.48654007 108.80886963 129.04459808 108.11128235 128.58926392 C105.92699689 127.16580594 103.7365348 125.75217988 101.54582214 124.33863831 C100.12223456 123.41283692 98.69905271 122.48641133 97.27629089 121.55934143 C93.77024124 119.27740973 90.2575059 117.00603712 86.74198914 114.73872375 C84.66812178 113.39939437 82.59743071 112.05526635 80.52726746 110.71022034 C79.24445784 109.87922345 77.96158341 109.0483266 76.67863464 108.21754456 C75.78735367 107.63697548 75.78735367 107.63697548 74.87806702 107.04467773 C72.46098843 105.19357891 72.46098843 105.19357891 69.67082214 104.40113831 Z M-45.14167786 184.83863831 C-49.07996649 189.45206213 -49.77463666 191.99132243 -49.64558411 197.89332581 C-49.17875769 201.59335744 -47.80354205 203.65927528 -45.32917786 206.40113831 C-37.74148311 212.0432703 -29.78972686 210.40113831 -20.32917786 210.40113831 C-20.32917786 200.50113831 -20.32917786 190.60113831 -20.32917786 180.40113831 C-33.75249038 179.48589584 -33.75249038 179.48589584 -45.14167786 184.83863831 Z M276.51823425 348.99977112 C275.6373967 349.56746216 274.75655914 350.1351532 273.84902954 350.720047 C269.82801113 353.33184451 265.80948529 355.94733781 261.79655457 358.57154846 C259.67307924 359.9566287 257.54579163 361.335882 255.41471863 362.70924377 C252.35447109 364.68177727 249.3065101 366.67208255 246.26066589 368.66676331 C245.30135666 369.28045776 244.34204742 369.89415222 243.35366821 370.52644348 C242.47598282 371.10674316 241.59829742 371.68704285 240.6940155 372.28492737 C239.91537643 372.79122681 239.13673737 373.29752625 238.33450317 373.81916809 C237.78548843 374.34121826 237.23647369 374.86326843 236.67082214 375.40113831 C236.67082214 376.72113831 236.67082214 378.04113831 236.67082214 379.40113831 C238.35365859 381.09776378 238.35365859 381.09776378 240.6940155 382.51734924 C242.01054359 383.38779877 242.01054359 383.38779877 243.35366821 384.27583313 C244.79263206 385.19637482 244.79263206 385.19637482 246.26066589 386.13551331 C247.2349202 386.77353882 248.2091745 387.41156433 249.21295166 388.06892395 C252.33638955 390.1094894 255.47222663 392.13009365 258.60832214 394.15113831 C260.72045107 395.52881762 262.83179012 396.90770873 264.94230652 398.28785706 C268.79638126 400.79983267 272.65132574 403.31032143 276.51823425 405.80250549 C277.29766891 406.30562256 278.07710358 406.80873962 278.88015747 407.32710266 C280.4657389 408.48686628 280.4657389 408.48686628 281.67082214 408.40113831 C281.75718933 407.80945862 281.84355652 407.21777893 281.93254089 406.60816956 C282.91913702 401.05969776 284.10518741 398.05364609 288.67082214 394.40113831 C290.98051315 393.2462928 292.28759589 393.27542161 294.85716248 393.27415466 C295.73472702 393.27133484 296.61229156 393.26851501 297.51644897 393.26560974 C298.4816597 393.26763397 299.44687042 393.2696582 300.44132996 393.27174377 C301.45610916 393.26999146 302.47088837 393.26823914 303.51641846 393.26643372 C306.88561187 393.26201719 310.25475316 393.26495338 313.62394714 393.26832581 C315.96084096 393.2676525 318.29773472 393.26668225 320.6346283 393.26542664 C325.54074264 393.26394976 330.44683881 393.26610312 335.35295105 393.27076721 C341.63890157 393.2764519 347.92480928 393.27319342 354.21075821 393.26719475 C359.04061708 393.26357812 363.87046583 393.26473302 368.70032501 393.26732254 C371.0175502 393.26798941 373.33477631 393.26717176 375.65200043 393.26484299 C378.89560367 393.26229984 382.13913808 393.26618116 385.38273621 393.27174377 C386.81840691 393.26870743 386.81840691 393.26870743 388.28308105 393.26560974 C392.86104906 393.28013318 397.16654973 393.46108124 401.67082214 394.40113831 C401.72524285 391.71336029 401.76469481 389.02670618 401.79582214 386.33863831 C401.82095886 385.21038635 401.82095886 385.21038635 401.84660339 384.05934143 C401.90056822 377.82640446 401.4672074 372.47389053 397.23332214 367.58863831 C390.84889563 362.13851811 385.38834366 362.25300975 377.37004089 362.24342346 C376.44099945 362.23834274 375.51195801 362.23326202 374.55476379 362.22802734 C372.54191523 362.21734621 370.52905496 362.20871723 368.51618958 362.20190811 C365.33028499 362.19009686 362.14451459 362.17063987 358.95866394 362.14878845 C349.90214998 362.08723488 340.84565169 362.03307596 331.78898621 361.99977112 C326.24585705 361.97883951 320.70297593 361.94355356 315.1599884 361.89901352 C313.04850683 361.88484728 310.93698142 361.87612968 308.82545471 361.87295914 C305.87390616 361.86805646 302.92301798 361.84491651 299.97160339 361.81764221 C299.0997641 361.82064835 298.2279248 361.82365448 297.32966614 361.82675171 C292.61963261 361.76204037 289.49909854 361.44890855 285.67082214 358.40113831 C282.71284236 354.59802144 282.13584131 351.14433384 281.67082214 346.40113831 C279.74874108 346.40113831 278.07464375 347.99512478 276.51823425 348.99977112 Z M371.67082214 422.40113831 C371.67082214 432.30113831 371.67082214 442.20113831 371.67082214 452.40113831 C385.09413466 453.31638077 385.09413466 453.31638077 396.48332214 447.96363831 C400.42161078 443.35021448 401.11628095 440.81095418 400.98722839 434.90895081 C400.52040197 431.20891917 399.14518634 429.14300133 396.67082214 426.40113831 C389.08312739 420.75900631 381.13137114 422.40113831 371.67082214 422.40113831 Z " fill="#000000" transform="translate(80.32917785644531,-0.4011383056640625)"/>
<path d="M0 0 C0.91475446 -0.00538554 1.82950892 -0.01077108 2.77198321 -0.01631981 C5.83816153 -0.03063099 8.90391006 -0.0234878 11.97010803 -0.01637268 C14.16798246 -0.02207458 16.36585392 -0.02903814 18.5637207 -0.03717041 C24.53475402 -0.05513662 30.50564067 -0.05392691 36.47669291 -0.04822803 C41.4594722 -0.04514123 46.4422231 -0.05122294 51.42499834 -0.05726677 C63.85088302 -0.07212556 76.27670239 -0.0684889 88.70258392 -0.05640347 C99.49091129 -0.04647109 110.27906716 -0.05941172 121.06736808 -0.08333766 C132.14847073 -0.10772755 143.22950425 -0.11693704 154.31063467 -0.11068493 C160.53039533 -0.10731074 166.75001428 -0.10976125 172.96975517 -0.12693596 C178.8179816 -0.14237951 184.66588005 -0.13847807 190.5140934 -0.11963081 C192.66111563 -0.11593781 194.80816203 -0.11907402 196.95516205 -0.1295166 C199.88495765 -0.14267919 202.81365991 -0.13122061 205.7434082 -0.11352539 C206.59409297 -0.1231304 207.44477775 -0.1327354 208.32124084 -0.14263147 C213.66142636 -0.07621752 216.69218224 0.85206384 220.93519592 4.38768005 C224.9914999 9.61027863 224.70917136 15.04108148 223.93519592 21.38768005 C221.7621662 25.97518726 219.49234746 28.24810001 214.93519592 30.38768005 C211.91216877 30.82124515 208.9202062 30.79685054 205.87039185 30.77536011 C204.95563739 30.78074565 204.04088293 30.78613118 203.09840864 30.79167992 C200.03223032 30.8059911 196.96648178 30.79884791 193.90028381 30.79173279 C191.70240939 30.79743469 189.50453792 30.80439825 187.30667114 30.81253052 C181.33563782 30.83049673 175.36475118 30.82928702 169.39369893 30.82358813 C164.41091965 30.82050134 159.42816875 30.82658305 154.4453935 30.83262688 C142.01950882 30.84748567 129.59368946 30.84384901 117.16780793 30.83176357 C106.37948055 30.82183119 95.59132468 30.83477183 84.80302376 30.85869776 C73.72192112 30.88308766 62.6408876 30.89229714 51.55975717 30.88604504 C45.33999651 30.88267085 39.12037756 30.88512135 32.90063667 30.90229607 C27.05241025 30.91773962 21.2045118 30.91383818 15.35629845 30.89499092 C13.20927621 30.89129791 11.06222981 30.89443413 8.9152298 30.90487671 C5.9854342 30.9180393 3.05673193 30.90658072 0.12698364 30.8888855 C-0.72370113 30.8984905 -1.5743859 30.90809551 -2.450849 30.91799158 C-7.79103451 30.85157763 -10.8217904 29.92329627 -15.06480408 26.38768005 C-19.12110806 21.16508148 -18.83877951 15.73427863 -18.06480408 9.38768005 C-14.10137063 1.02043167 -8.48533636 -0.05979169 0 0 Z " fill="#000000" transform="translate(138.06480407714844,271.61231994628906)"/>
<path d="M0 0 C1.49356522 -0.01029488 1.49356522 -0.01029488 3.01730347 -0.02079773 C6.30538229 -0.03908373 9.5929848 -0.03522554 12.88110352 -0.02954102 C15.1688706 -0.03410195 17.45663631 -0.03940725 19.74440002 -0.04542542 C24.53847826 -0.05436008 29.33238995 -0.05192924 34.12646484 -0.04199219 C40.26792179 -0.03050238 46.40880379 -0.05071291 52.5501852 -0.07990932 C57.27455798 -0.09826146 61.99879274 -0.09798078 66.72319221 -0.0922718 C68.98739491 -0.09211847 71.25160689 -0.09817285 73.51577568 -0.11056328 C76.6827583 -0.12545226 79.84867556 -0.11481076 83.015625 -0.09765625 C83.94932419 -0.10732422 84.88302338 -0.11699219 85.84501648 -0.12695312 C91.41863953 -0.06378264 94.666993 0.65326945 99.07250977 4.40405273 C103.12881375 9.62665131 102.8464852 15.05745416 102.07250977 21.40405273 C99.90101893 25.98831115 97.64385328 28.29512322 93.07250977 30.40405273 C89.76341387 30.84719792 86.47973158 30.82414835 83.14501953 30.80810547 C82.14930939 30.81496872 81.15359924 30.82183197 80.12771606 30.8289032 C76.83963724 30.8471892 73.55203473 30.84333101 70.26391602 30.83764648 C67.97614893 30.84220741 65.68838322 30.84751272 63.40061951 30.85353088 C58.60654127 30.86246555 53.81262958 30.86003471 49.01855469 30.85009766 C42.87709774 30.83860784 36.73621574 30.85881838 30.59483433 30.88801479 C25.87046155 30.90636693 21.14622679 30.90608625 16.42182732 30.90037727 C14.15762462 30.90022394 11.89341265 30.90627832 9.62924385 30.91866875 C6.46226124 30.93355772 3.29634397 30.92291623 0.12939453 30.90576172 C-0.80430466 30.91542969 -1.73800385 30.92509766 -2.69999695 30.93505859 C-8.27362 30.87188811 -11.52197347 30.15483602 -15.92749023 26.40405273 C-19.98379422 21.18145416 -19.70146567 15.75065131 -18.92749023 9.40405273 C-14.78315311 0.65489659 -8.80765729 -0.04237253 0 0 Z " fill="#000000" transform="translate(138.927490234375,391.595947265625)"/>
<path d="M0 0 C1.49356522 -0.01029488 1.49356522 -0.01029488 3.01730347 -0.02079773 C6.30538229 -0.03908373 9.5929848 -0.03522554 12.88110352 -0.02954102 C15.1688706 -0.03410195 17.45663631 -0.03940725 19.74440002 -0.04542542 C24.53847826 -0.05436008 29.33238995 -0.05192924 34.12646484 -0.04199219 C40.26792179 -0.03050238 46.40880379 -0.05071291 52.5501852 -0.07990932 C57.27455798 -0.09826146 61.99879274 -0.09798078 66.72319221 -0.0922718 C68.98739491 -0.09211847 71.25160689 -0.09817285 73.51577568 -0.11056328 C76.6827583 -0.12545226 79.84867556 -0.11481076 83.015625 -0.09765625 C83.94932419 -0.10732422 84.88302338 -0.11699219 85.84501648 -0.12695312 C91.41863953 -0.06378264 94.666993 0.65326945 99.07250977 4.40405273 C103.12881375 9.62665131 102.8464852 15.05745416 102.07250977 21.40405273 C99.90101893 25.98831115 97.64385328 28.29512322 93.07250977 30.40405273 C89.76341387 30.84719792 86.47973158 30.82414835 83.14501953 30.80810547 C82.14930939 30.81496872 81.15359924 30.82183197 80.12771606 30.8289032 C76.83963724 30.8471892 73.55203473 30.84333101 70.26391602 30.83764648 C67.97614893 30.84220741 65.68838322 30.84751272 63.40061951 30.85353088 C58.60654127 30.86246555 53.81262958 30.86003471 49.01855469 30.85009766 C42.87709774 30.83860784 36.73621574 30.85881838 30.59483433 30.88801479 C25.87046155 30.90636693 21.14622679 30.90608625 16.42182732 30.90037727 C14.15762462 30.90022394 11.89341265 30.90627832 9.62924385 30.91866875 C6.46226124 30.93355772 3.29634397 30.92291623 0.12939453 30.90576172 C-0.80430466 30.91542969 -1.73800385 30.92509766 -2.69999695 30.93505859 C-8.27362 30.87188811 -11.52197347 30.15483602 -15.92749023 26.40405273 C-19.98379422 21.18145416 -19.70146567 15.75065131 -18.92749023 9.40405273 C-14.78315311 0.65489659 -8.80765729 -0.04237253 0 0 Z " fill="#000000" transform="translate(138.927490234375,331.595947265625)"/>
<path d="M0 0 C1.47893486 -0.01029488 1.47893486 -0.01029488 2.98774719 -0.02079773 C6.24336187 -0.03908255 9.49849543 -0.03522571 12.75415039 -0.02954102 C15.01949724 -0.03410201 17.28484271 -0.03940733 19.55018616 -0.04542542 C24.29718651 -0.05435985 29.04401865 -0.05192951 33.79101562 -0.04199219 C39.87194057 -0.03050244 45.95228485 -0.05071291 52.03313351 -0.07990932 C56.71118351 -0.09826213 61.38909413 -0.09798065 66.0671711 -0.0922718 C68.30904518 -0.09211848 70.55092864 -0.09817221 72.79276848 -0.11056328 C75.92862164 -0.12545354 79.06339907 -0.11480987 82.19921875 -0.09765625 C83.1235672 -0.10732422 84.04791565 -0.11699219 85.00027466 -0.12695312 C90.55057242 -0.06343101 93.77461631 0.6753459 98.16430664 4.40405273 C102.22061062 9.62665131 101.93828208 15.05745416 101.16430664 21.40405273 C98.99265771 25.98864491 96.73409543 28.2917682 92.16430664 30.40405273 C88.88568641 30.84651422 85.6330172 30.82416301 82.32861328 30.80810547 C80.84967842 30.81840034 80.84967842 30.81840034 79.34086609 30.8289032 C76.08525141 30.84718801 72.83011785 30.84333118 69.57446289 30.83764648 C67.30911604 30.84220747 65.04377057 30.8475128 62.77842712 30.85353088 C58.03142677 30.86246532 53.28459463 30.86003498 48.53759766 30.85009766 C42.45667271 30.83860791 36.37632844 30.85881838 30.29547977 30.88801479 C25.61742977 30.9063676 20.93951915 30.90608612 16.26144218 30.90037727 C14.0195681 30.90022395 11.77768464 30.90627767 9.5358448 30.91866875 C6.39999164 30.933559 3.26521421 30.92291534 0.12939453 30.90576172 C-0.79495392 30.91542969 -1.71930237 30.92509766 -2.67166138 30.93505859 C-8.22195914 30.87153648 -11.44600303 30.13275957 -15.83569336 26.40405273 C-19.89199734 21.18145416 -19.6096688 15.75065131 -18.83569336 9.40405273 C-14.71034071 0.69497492 -8.7737284 -0.04263536 0 0 Z " fill="#000000" transform="translate(260.835693359375,209.595947265625)"/>
<path d="M0 0 C1.47893486 -0.01029488 1.47893486 -0.01029488 2.98774719 -0.02079773 C6.24336187 -0.03908255 9.49849543 -0.03522571 12.75415039 -0.02954102 C15.01949724 -0.03410201 17.28484271 -0.03940733 19.55018616 -0.04542542 C24.29718651 -0.05435985 29.04401865 -0.05192951 33.79101562 -0.04199219 C39.87194057 -0.03050244 45.95228485 -0.05071291 52.03313351 -0.07990932 C56.71118351 -0.09826213 61.38909413 -0.09798065 66.0671711 -0.0922718 C68.30904518 -0.09211848 70.55092864 -0.09817221 72.79276848 -0.11056328 C75.92862164 -0.12545354 79.06339907 -0.11480987 82.19921875 -0.09765625 C83.1235672 -0.10732422 84.04791565 -0.11699219 85.00027466 -0.12695312 C90.55057242 -0.06343101 93.77461631 0.6753459 98.16430664 4.40405273 C102.22061062 9.62665131 101.93828208 15.05745416 101.16430664 21.40405273 C98.99265771 25.98864491 96.73409543 28.2917682 92.16430664 30.40405273 C88.88568641 30.84651422 85.6330172 30.82416301 82.32861328 30.80810547 C80.84967842 30.81840034 80.84967842 30.81840034 79.34086609 30.8289032 C76.08525141 30.84718801 72.83011785 30.84333118 69.57446289 30.83764648 C67.30911604 30.84220747 65.04377057 30.8475128 62.77842712 30.85353088 C58.03142677 30.86246532 53.28459463 30.86003498 48.53759766 30.85009766 C42.45667271 30.83860791 36.37632844 30.85881838 30.29547977 30.88801479 C25.61742977 30.9063676 20.93951915 30.90608612 16.26144218 30.90037727 C14.0195681 30.90022395 11.77768464 30.90627767 9.5358448 30.91866875 C6.39999164 30.933559 3.26521421 30.92291534 0.12939453 30.90576172 C-0.79495392 30.91542969 -1.71930237 30.92509766 -2.67166138 30.93505859 C-8.22195914 30.87153648 -11.44600303 30.13275957 -15.83569336 26.40405273 C-19.89199734 21.18145416 -19.6096688 15.75065131 -18.83569336 9.40405273 C-14.71034071 0.69497492 -8.7737284 -0.04263536 0 0 Z " fill="#000000" transform="translate(260.835693359375,149.595947265625)"/>
</svg>
