<?xml version="1.0" encoding="UTF-8"?>
<svg version="1.1" xmlns="http://www.w3.org/2000/svg" width="512" height="512">
<path d="M0 0 C1.44965825 -0.00967334 1.44965825 -0.00967334 2.92860252 -0.0195421 C4.50942336 -0.01489629 4.50942336 -0.01489629 6.12217999 -0.01015663 C7.24786803 -0.01468774 8.37355608 -0.01921886 9.53335589 -0.02388728 C13.31338687 -0.03656905 17.09327447 -0.03490845 20.87332439 -0.03325844 C23.58026455 -0.03815374 26.28719458 -0.04598954 28.99412823 -0.05361366 C35.58885477 -0.07022158 42.18354556 -0.07572312 48.77829126 -0.07683842 C54.13947434 -0.07778902 59.50064564 -0.08189989 64.86182499 -0.08823967 C80.06492277 -0.1058517 95.26799232 -0.11507863 110.47110037 -0.11357872 C111.29058234 -0.11349881 112.11006432 -0.1134189 112.95437908 -0.11333656 C114.18510461 -0.11321392 114.18510461 -0.11321392 115.44069328 -0.1130888 C128.7366645 -0.11227597 142.03252241 -0.13141309 155.32846085 -0.1596133 C168.9837357 -0.18834688 182.63895531 -0.20215332 196.29426116 -0.20042574 C203.95943085 -0.19976199 211.62448177 -0.20524765 219.28962421 -0.22678185 C225.81617901 -0.24499993 232.34256119 -0.24933593 238.86913041 -0.235763 C242.19786543 -0.22923618 245.52599934 -0.23128153 248.85474682 -0.2464695 C252.46689251 -0.26188316 256.07816853 -0.25263809 259.69029522 -0.23720741 C261.26107782 -0.2526381 261.26107782 -0.2526381 262.8635934 -0.26838052 C270.10328669 -0.20003367 275.80951056 1.06525566 281.12015057 6.22211266 C281.56616619 6.87308922 282.01218182 7.52406578 282.47171307 8.19476891 C283.16393963 9.16736656 283.16393963 9.16736656 283.87015057 10.15961266 C286.37424948 14.44210029 287.34665746 17.95397719 287.34280872 22.91691875 C287.34679082 24.05201077 287.35077292 25.18710278 287.35487568 26.35659152 C287.34905 27.59880361 287.34322432 28.84101571 287.3372221 30.12087059 C287.33809439 31.45749721 287.3398458 32.79412351 287.34240043 34.13074797 C287.34687342 37.80220338 287.33887096 41.47354215 287.32884431 45.1449827 C287.32021142 49.10471364 287.32312986 53.06443794 287.32464886 57.02417564 C287.32569781 63.88420038 287.31942013 70.7441871 287.30817318 77.60420227 C287.29192255 87.52264048 287.28671062 97.4410603 287.2841972 107.35951038 C287.27981941 123.4513355 287.26650803 139.54314034 287.24759197 155.63495445 C287.22923535 171.26711488 287.21507778 186.8992698 287.20657635 202.53143883 C287.2060509 203.49492478 287.20552545 204.45841074 287.20498408 205.45109323 C287.20237402 210.28459504 287.1998466 215.11809689 287.19736028 219.95159876 C287.17662517 260.05350314 287.14124873 300.15538436 287.09671307 340.25726891 C293.69671307 340.25726891 300.29671307 340.25726891 307.09671307 340.25726891 C307.09671307 264.68726891 307.09671307 189.11726891 307.09671307 111.25726891 C304.78671307 111.25726891 302.47671307 111.25726891 300.09671307 111.25726891 C297.59671307 109.19476891 297.59671307 109.19476891 296.09671307 106.25726891 C296.15640659 102.7950447 296.24319362 100.37196756 298.38601971 97.57343102 C301.61684587 95.08771904 305.61158027 95.78754414 309.53421307 95.81976891 C310.39337322 95.79978844 311.25253338 95.77980797 312.13772869 95.75922203 C312.96852947 95.75986656 313.79933025 95.76051109 314.65530682 95.76117516 C315.41126141 95.75932213 316.167216 95.7574691 316.9460783 95.75555992 C320.17056719 96.50778204 321.12805106 97.56765361 323.09671307 100.25726891 C323.70688525 103.57624226 323.63588669 106.86712593 323.60464764 110.23357201 C323.61400758 111.77086428 323.61400758 111.77086428 323.62355661 113.33921295 C323.63955098 116.78405398 323.6268567 120.22819373 323.61429119 123.67304039 C323.61970946 126.13839698 323.62683044 128.60375033 323.63553143 131.06909752 C323.65190464 137.07683186 323.64947047 143.08428953 323.63788086 149.09201317 C323.62885136 153.97461513 323.62762043 158.85716107 323.63197613 163.73976898 C323.63258906 164.43439908 323.63320199 165.12902918 323.6338335 165.84470867 C323.63511239 167.25580089 323.63640924 168.6668931 323.63772386 170.07798529 C323.64913392 183.31436277 323.63600977 196.55062949 323.6145224 209.7869888 C323.59665493 221.14505759 323.59975173 232.50296284 323.61819744 243.86102867 C323.63960348 257.04812519 323.64803109 270.23512456 323.63574839 283.42223603 C323.63447418 284.82847502 323.6332167 286.23471404 323.63197613 287.64095306 C323.63105047 288.67881531 323.63105047 288.67881531 323.63010612 289.73764447 C323.62665212 294.61402104 323.63248272 299.49033601 323.64189434 304.36670303 C323.65428437 310.93060748 323.64546292 317.49425065 323.62231731 324.05814171 C323.61701945 326.47003795 323.61856229 328.88196014 323.62736797 331.29384613 C323.63826412 334.58091193 323.62463043 337.86698028 323.60464764 341.15398216 C323.61803197 342.59298517 323.61803197 342.59298517 323.63168669 344.06105894 C323.6160402 345.38379004 323.6160402 345.38379004 323.60007763 346.73324299 C323.59942822 347.49165452 323.59877881 348.25006605 323.59810972 349.03145975 C322.85846198 352.31491748 321.51989369 353.94595845 319.09671307 356.25726891 C316.19359875 356.88286406 316.19359875 356.88286406 312.74356365 356.8836813 C311.42830952 356.89610334 310.11305538 356.90852537 308.75794506 356.92132384 C307.29469222 356.90982211 305.83144302 356.89784987 304.36819744 356.88545799 C302.8166627 356.89050108 301.26513377 356.89772806 299.71361828 356.90695614 C295.44319163 356.92593958 291.17333519 356.91361069 286.90292263 356.8962332 C282.30025191 356.88289454 277.69766657 356.89828367 273.09500408 356.91005516 C264.07568273 356.92846235 255.0565776 356.91989893 246.03726292 356.90196694 C238.70900091 356.88795787 231.38079772 356.88404448 224.05252361 356.88740921 C223.01068464 356.88788665 221.96884566 356.88836409 220.89543581 356.888856 C218.77915286 356.8898823 216.66286992 356.89093766 214.54658699 356.89202177 C195.82106484 356.90059506 177.09564727 356.88389342 158.37015057 356.85419273 C140.18781421 356.82535382 122.00562852 356.81827098 103.82327557 356.83368492 C84.03775275 356.85043489 64.25230152 356.85449359 44.46677685 356.83697456 C42.35815208 356.83513012 40.2495273 356.83329539 38.14090252 356.83147049 C37.10333986 356.8305584 36.0657772 356.82964631 34.99677324 356.82870658 C27.67484966 356.82309369 20.35296094 356.82641537 13.03103924 356.83301544 C4.11157476 356.84073614 -4.80774122 356.83404173 -13.72717571 356.8088404 C-18.28057239 356.79631593 -22.83373755 356.79023438 -27.38714314 356.80138206 C-31.55205109 356.81138632 -35.71649627 356.80304697 -39.88134766 356.77980088 C-41.39137567 356.77462028 -42.9014448 356.77624158 -44.41145515 356.78519554 C-46.45766522 356.79632352 -48.50396938 356.7806139 -50.55013752 356.76342678 C-52.25790489 356.76163956 -52.25790489 356.76163956 -54.00017262 356.75981623 C-57.59122074 356.13818324 -58.77333924 355.18069188 -60.90328693 352.25726891 C-61.40468359 350.15680891 -61.40468359 350.15680891 -61.4066515 347.85908413 C-61.41708249 346.97987114 -61.42751348 346.10065815 -61.43826056 345.19480234 C-61.42933767 344.23323629 -61.42041478 343.27167023 -61.4112215 342.28096581 C-61.41746147 341.25610429 -61.42370143 340.23124278 -61.43013048 339.17532486 C-61.44612484 335.73048384 -61.43343057 332.28634408 -61.42086506 328.84149742 C-61.42628332 326.37614083 -61.43340431 323.91078748 -61.44210529 321.44544029 C-61.45847851 315.43770595 -61.45604434 309.43024828 -61.44445473 303.42252464 C-61.43542523 298.53992268 -61.4341943 293.65737674 -61.43855 288.77476883 C-61.43916293 288.08013873 -61.43977586 287.38550864 -61.44040737 286.66982914 C-61.44168626 285.25873692 -61.44298311 283.84764471 -61.44429773 282.43655252 C-61.45570779 269.20017504 -61.44258363 255.96390832 -61.42109627 242.72754901 C-61.4032288 231.36948022 -61.4063256 220.01157497 -61.42477131 208.65350914 C-61.44617735 195.46641262 -61.45460496 182.27941325 -61.44232225 169.09230179 C-61.44104805 167.68606279 -61.43979057 166.27982378 -61.43855 164.87358475 C-61.43793289 164.18167658 -61.43731579 163.48976842 -61.43667999 162.77689334 C-61.43322598 157.90051677 -61.43905658 153.0242018 -61.44846821 148.14783478 C-61.46085824 141.58393033 -61.45203679 135.02028717 -61.42889118 128.4563961 C-61.42359332 126.04449986 -61.42513615 123.63257767 -61.43394184 121.22069168 C-61.44483799 117.93362588 -61.4312043 114.64755753 -61.4112215 111.36055565 C-61.42014439 110.40122031 -61.42906728 109.44188498 -61.43826056 108.45347887 C-61.38832387 104.23190368 -61.27181279 101.87052195 -59.05904102 98.18831348 C-55.02895972 94.57831609 -50.65237064 95.07409668 -45.52828693 95.06976891 C-44.77289631 95.05752281 -44.01750568 95.04527672 -43.23922443 95.03265953 C-39.02449894 95.02160693 -35.70902193 95.22611821 -31.90328693 97.25726891 C-29.90328693 99.25726891 -29.90328693 99.25726891 -29.52828693 103.13226891 C-29.63510188 105.92980311 -29.88669961 107.225674 -31.21578693 109.75726891 C-33.90328693 111.25726891 -33.90328693 111.25726891 -44.90328693 111.25726891 C-44.90328693 186.82726891 -44.90328693 262.39726891 -44.90328693 340.25726891 C-36.98328693 340.25726891 -29.06328693 340.25726891 -20.90328693 340.25726891 C-20.90697411 338.59483398 -20.91066128 336.93239906 -20.91446018 335.21958733 C-21.00108611 295.75932478 -21.06704626 256.29907393 -21.10754825 216.83873597 C-21.1125511 211.98215303 -21.11772838 207.12557029 -21.1230135 202.26898766 C-21.12406274 201.30212695 -21.12511198 200.33526625 -21.12619302 199.33910674 C-21.14359961 183.68255299 -21.17513872 168.02605798 -21.21189812 152.36953908 C-21.24930043 136.30524783 -21.27152129 120.24098735 -21.27964091 104.17665434 C-21.28513015 94.26358979 -21.30246927 84.35069125 -21.3349528 74.4376778 C-21.35609191 67.6405226 -21.36248834 60.84345326 -21.35729244 54.04626757 C-21.35472972 50.12424654 -21.35866614 46.20251566 -21.38010883 42.28054619 C-21.39960856 38.68768587 -21.40053517 35.09531015 -21.38688251 31.50242728 C-21.38439859 29.59159151 -21.40161999 27.68076124 -21.41961217 25.77000856 C-21.36479968 17.89280786 -20.45346029 12.37134005 -15.15719318 6.23383141 C-14.59902912 5.78781578 -14.04086506 5.34180016 -13.46578693 4.88226891 C-12.910201 4.42078453 -12.35461506 3.95930016 -11.78219318 3.48383141 C-7.97918913 1.00120506 -4.51878399 0.00765007 0 0 Z M-4.90328693 19.25726891 C-4.90328693 29.15726891 -4.90328693 39.05726891 -4.90328693 49.25726891 C86.17671307 49.25726891 177.25671307 49.25726891 271.09671307 49.25726891 C271.09671307 39.68726891 271.09671307 30.11726891 271.09671307 20.25726891 C267.22226383 16.04875873 267.22226383 16.04875873 262.41182899 15.75669765 C261.46868149 15.74688336 260.52553398 15.73706907 259.55380625 15.72695738 C258.52083888 15.73656239 257.48787151 15.74616739 256.4236021 15.75606346 C255.32382552 15.75052906 254.22404893 15.74499467 253.09094578 15.73929256 C249.39268962 15.72564076 245.69510302 15.74068049 241.99685955 15.75555992 C239.35090554 15.75177841 236.70499681 15.74643274 234.05905437 15.73918724 C227.61085508 15.72524342 221.16285141 15.73281905 214.71466141 15.74786282 C207.2090683 15.76470828 199.70352412 15.76151456 192.19791795 15.75776874 C178.80875603 15.75188818 165.41968811 15.76606995 152.03055096 15.79071617 C139.03116616 15.81464234 126.03190694 15.82171883 113.03250408 15.81122398 C98.88370383 15.79982169 84.73496169 15.7978758 70.58616215 15.81232208 C69.07829162 15.81384796 67.57042109 15.81536831 66.06255054 15.81688309 C65.32060697 15.8176409 64.5786634 15.81839872 63.81423668 15.81917949 C58.57926417 15.82392728 53.34431756 15.82206742 48.10934544 15.81781769 C41.73267844 15.81289747 35.3561303 15.81884657 28.97949057 15.83871198 C25.72441979 15.84860193 22.46956788 15.85206884 19.21448231 15.84581947 C15.69040537 15.83990029 12.16686852 15.85230739 8.64284039 15.86958885 C7.6076423 15.86357881 6.57244421 15.85756876 5.50587648 15.85137659 C4.56533672 15.85981653 3.62479696 15.86825647 2.655756 15.87695217 C1.8419053 15.8779813 1.0280546 15.87901043 0.18954176 15.88007075 C-2.34856507 16.13207629 -2.34856507 16.13207629 -4.90328693 19.25726891 Z M-4.90328693 65.25726891 C-4.90328693 156.00726891 -4.90328693 246.75726891 -4.90328693 340.25726891 C86.17671307 340.25726891 177.25671307 340.25726891 271.09671307 340.25726891 C271.09671307 249.50726891 271.09671307 158.75726891 271.09671307 65.25726891 C180.01671307 65.25726891 88.93671307 65.25726891 -4.90328693 65.25726891 Z " fill="#000000" transform="translate(124.90328693389893,14.742731094360352)"/>
<path d="M0 0 C2.19538784 1.47752666 2.19538784 1.47752666 4 4 C4.38970262 7.01319971 4.5344771 9.65967508 4.49879456 12.67207336 C4.50417911 13.55668297 4.50956366 14.44129257 4.51511139 15.35270852 C4.52840784 18.32306559 4.51322177 21.29260005 4.49829102 24.26293945 C4.50211313 26.39007955 4.50773124 28.51721708 4.51501465 30.64434814 C4.52698085 35.22846659 4.52646369 39.81235607 4.51642036 44.39647865 C4.50088415 51.64487097 4.51452109 58.89302724 4.53245544 66.1414032 C4.56330529 80.22260994 4.5647757 94.30374496 4.56280518 108.38497925 C4.5614133 126.29798842 4.57174371 144.21094228 4.6113829 162.12391061 C4.62632536 169.32917276 4.62603944 176.5342267 4.61390507 183.73949206 C4.60919511 188.22379444 4.61671269 192.7080171 4.62744904 197.19230652 C4.62985583 199.27118169 4.62711755 201.35007019 4.61884117 203.42893028 C4.60821297 206.26848931 4.61597709 209.1074363 4.62818909 211.94697571 C4.616825 213.17880182 4.616825 213.17880182 4.60523134 214.43551332 C4.66192177 220.65925637 5.8601541 225.36085672 9.875 230.3125 C14.1566313 233.71261898 18.05793596 234.25056579 23.43378925 234.25726891 C24.74160085 234.2637178 26.04941245 234.27016669 27.3968547 234.276811 C28.84654549 234.27386878 30.2962359 234.27073335 31.7459259 234.26742554 C33.28721724 234.2711619 34.82850668 234.27576337 36.36979312 234.28115618 C40.60726177 234.29340335 44.84465157 234.2931237 49.08213389 234.29076743 C53.65144294 234.2903597 58.22072657 234.30139425 62.7900238 234.31088257 C71.74296874 234.32750295 80.69588735 234.33299258 89.64884643 234.33410732 C96.92555096 234.33505731 104.20224681 234.3391651 111.47894859 234.34550858 C132.10512258 234.3631238 152.73127575 234.372347 173.35745732 234.37084763 C174.46966486 234.37076772 175.5818724 234.3706878 176.7277832 234.37060547 C177.84134714 234.37052371 178.95491107 234.37044195 180.10221937 234.37035771 C198.15107469 234.36954472 216.19984658 234.3886848 234.24867777 234.4168822 C252.77656397 234.44559986 271.30440946 234.45942311 289.83231848 234.45769465 C300.23615173 234.45703036 310.6398975 234.46253962 321.04371071 234.48405075 C329.90153161 234.50224782 338.7592254 234.50662201 347.61705688 234.4930319 C352.13654141 234.48649481 356.65578195 234.48641174 361.17524338 234.5037384 C365.31377454 234.5194415 369.45186772 234.51663395 373.59038802 234.49917014 C375.08633526 234.49609413 376.58231496 234.49975529 378.07822392 234.51089029 C386.09139165 234.56657986 392.22592241 234.53361997 399 230 C402.24608211 225.81150696 403.0979956 221.80035198 403.17578125 216.59375 C403.19962891 215.76746094 403.22347656 214.94117188 403.24804688 214.08984375 C403.29100936 212.36353299 403.32226368 210.63689105 403.34179688 208.91015625 C403.55213623 202.63910843 403.55213623 202.63910843 405.79296875 199.44140625 C408.10064309 197.93427027 409.2712289 197.43217037 412 197.4375 C412.99 197.40462891 412.99 197.40462891 414 197.37109375 C417.31830565 198.41454533 418.27211205 200.01512103 420 203 C420.55389951 206.2432568 420.52176662 209.40504226 420.4375 212.6875 C420.41550537 214.0338855 420.41550537 214.0338855 420.39306641 215.4074707 C420.09960375 225.69081342 417.9352444 234.11285931 411 242 C401.98188051 249.77834035 392.47435084 251.454447 380.87084961 251.34057617 C379.68935333 251.34101425 378.50785706 251.34145233 377.29055786 251.34190369 C373.41098119 251.33982469 369.53184432 251.31653486 365.65234375 251.29296875 C362.95235944 251.28569537 360.25237555 251.28295333 357.55238342 251.28010559 C351.18835893 251.270813 344.82449062 251.2462374 338.46053463 251.21605712 C331.21018369 251.18242585 323.95982495 251.16600526 316.70941532 251.15097082 C301.8061758 251.11968498 286.90313891 251.06470825 272 251 C272 258.59 272 266.18 272 274 C273.65 274.33 275.3 274.66 277 275 C288.05683204 280.09295859 294.79934745 287.07329989 299.375 298.375 C301.17612714 303.75567814 302.23794291 309.38374432 301 315 C299.44599915 317.11888885 299.44599915 317.11888885 297 319 C294.30754054 319.39302886 292.02346125 319.5410547 289.33276367 319.50793457 C288.16805809 319.51729451 288.16805809 319.51729451 286.97982311 319.52684355 C284.37556362 319.54281039 281.77223534 319.53015531 279.16796875 319.51757812 C277.30196587 319.52299762 275.43596728 319.5301193 273.56997681 319.53881836 C268.49975243 319.5570752 263.42985312 319.54997442 258.35962296 319.53730202 C253.05769209 319.52718659 247.75578936 319.53656364 242.45385742 319.54284668 C233.54959101 319.55012733 224.64545722 319.5405244 215.74121094 319.52148438 C205.44144785 319.49971487 195.14200146 319.50676595 184.84224606 319.52879 C176.00478113 319.54693207 167.16741164 319.54950815 158.32993412 319.53903532 C153.0491981 319.53279384 147.76861102 319.53198276 142.48788452 319.54518127 C137.52361576 319.55672178 132.55975597 319.54874696 127.59553146 319.52560425 C125.77180028 319.52030753 123.94803478 319.52184735 122.12431717 319.53065491 C119.63815627 319.54155624 117.15331285 319.52791347 114.66723633 319.50793457 C113.57988583 319.5213189 113.57988583 319.5213189 112.47056866 319.53497362 C109.07120174 319.48183935 107.29021371 319.22156855 104.55400085 317.13256073 C101.48724416 312.92403995 102.4233781 307.95534441 103 303 C105.34565054 292.19534721 111.50006721 284.0332034 120.625 277.9375 C124.79114039 275.34129815 126.85775928 274.85704012 132 274 C132 266.41 132 258.82 132 251 C128.502854 251.01571045 125.00570801 251.0314209 121.40258789 251.04760742 C109.83561993 251.09736274 98.26863678 251.13062581 86.70159245 251.15543652 C79.68992199 251.17087731 72.67835322 251.19191314 65.66674805 251.22631836 C58.89755226 251.25951815 52.12846209 251.27686406 45.35918999 251.28463173 C42.77927426 251.29016592 40.19936417 251.30097281 37.61949348 251.31719017 C34.0001906 251.33903244 30.38132131 251.341964 26.76196289 251.34057617 C25.70028397 251.351362 24.63860504 251.36214783 23.54475403 251.3732605 C13.35342199 251.33109778 4.80772116 248.7343433 -3 242 C-10.13931007 233.88078462 -12.46835538 224.1955859 -12.38095093 213.59294128 C-12.3856309 212.701794 -12.39031087 211.81064672 -12.39513266 210.89249498 C-12.40700332 207.93623069 -12.39765684 204.98043682 -12.38818359 202.02416992 C-12.39225267 199.89290092 -12.39759644 197.76163402 -12.40411377 195.63037109 C-12.41774893 189.86422954 -12.41250549 184.09824965 -12.40297651 178.3321054 C-12.39536518 172.29263238 -12.40242916 166.25317292 -12.40713501 160.21369934 C-12.41258616 150.07839478 -12.40541553 139.94315591 -12.39111328 129.80786133 C-12.37476602 118.0879546 -12.38009296 106.36820428 -12.3965925 94.6483013 C-12.41019931 84.5801507 -12.41213162 74.51204721 -12.40427649 64.44389039 C-12.3995984 58.43273847 -12.39897938 52.42166013 -12.40888596 46.41051292 C-12.41754236 40.76417319 -12.41155789 35.11803569 -12.39420319 29.47171783 C-12.39023221 27.39845173 -12.39138279 25.32516863 -12.39799118 23.25190926 C-12.40617194 20.42508886 -12.39592719 17.59891927 -12.38095093 14.7721405 C-12.38764309 13.94919013 -12.39433526 13.12623975 -12.40123022 12.27835149 C-12.35394951 7.6871031 -11.8905928 4.63626372 -9 1 C-5.90826248 -0.54586876 -3.40570448 -0.29359521 0 0 Z M148 251 C148 257.93 148 264.86 148 272 C183.64 272 219.28 272 256 272 C256 265.07 256 258.14 256 251 C220.36 251 184.72 251 148 251 Z M124 296 C121.63694526 299.22180859 121.63694526 299.22180859 121 303 C174.46 303 227.92 303 283 303 C280.07001848 295.6750462 275.84307094 292.42153547 269 289 C265.54222081 288.13149416 262.31647492 287.87135954 258.75849915 287.85955811 C257.72272232 287.85384796 256.6869455 287.84813782 255.61978149 287.84225464 C253.93107437 287.84057785 253.93107437 287.84057785 252.20825195 287.83886719 C251.014142 287.83390228 249.82003204 287.82893738 248.58973694 287.82382202 C245.32086499 287.81173722 242.05202874 287.80426121 238.78313851 287.79981136 C236.73689963 287.79687302 234.69066626 287.79276674 232.64443016 287.78830719 C226.23078798 287.77464208 219.81715849 287.76497123 213.40350276 287.7611053 C206.02141605 287.75663017 198.63951502 287.73910361 191.25748473 287.7101047 C185.53752594 287.68842181 179.81761913 287.67839747 174.09761971 287.67706418 C170.68792992 287.67602065 167.27841489 287.67021024 163.86876869 287.65224457 C160.05861102 287.635126 156.24890158 287.63707899 152.4387207 287.64355469 C150.76519531 287.62973251 150.76519531 287.62973251 149.05786133 287.6156311 C139.40993347 287.66680933 130.93565382 288.89518389 124 296 Z " fill="#000000" transform="translate(52,178)"/>
<path d="M0 0 C1.34143066 0.02598267 1.34143066 0.02598267 2.70996094 0.05249023 C12.41434462 0.39882358 20.40315019 2.53910574 27.5859375 9.3671875 C34.91998576 18.36660916 36.52558078 27.44922752 36.51544189 38.62109375 C36.51841302 39.64272614 36.52138414 40.66435852 36.5244453 41.71694946 C36.53312588 45.14464125 36.53463999 48.57229809 36.53613281 52 C36.5407613 54.45564855 36.545786 56.91129637 36.55117798 59.36694336 C36.56429781 66.04032522 36.57078241 72.71369341 36.57518864 79.38708496 C36.57795318 83.55395637 36.58219081 87.72082547 36.58669281 91.88769531 C36.59888075 103.42577977 36.60918243 114.96386237 36.6125679 126.50195312 C36.61289725 127.60890722 36.61289725 127.60890722 36.61323325 128.73822403 C36.61356067 129.84780283 36.61356067 129.84780283 36.6138947 130.97979736 C36.61433817 132.47871908 36.61478473 133.97764079 36.61523438 135.4765625 C36.6154558 136.22007713 36.61567723 136.96359177 36.61590537 137.72963715 C36.6198562 149.78604117 36.63732099 161.84238486 36.6605939 173.89876556 C36.68429767 186.27823626 36.69676923 198.65767665 36.69793582 211.03717041 C36.6988529 217.98737884 36.70461375 224.93750855 36.72275543 231.88769531 C36.73974966 238.42118554 36.74141642 244.95455252 36.73261642 251.48806763 C36.73184341 253.88868611 36.73622331 256.28931249 36.74607468 258.68991089 C36.75871517 261.96142302 36.75296027 265.23239845 36.74249268 268.50390625 C36.75054908 269.45866852 36.75860548 270.41343079 36.76690602 271.39712524 C36.73047839 276.24902884 36.60843039 279.65937488 33.375 283.5625 C30.28326248 285.10836876 27.78070448 284.85609521 24.375 284.5625 C22.17961216 283.16285324 22.17961216 283.16285324 20.375 280.5625 C19.77726962 277.25992098 19.84184473 273.99265362 19.87620544 270.64434814 C19.87082089 269.62568688 19.86543634 268.60702562 19.85988861 267.55749583 C19.84658123 264.13346569 19.8617848 260.71014775 19.87670898 257.28613281 C19.87288728 254.83549672 19.86726952 252.38486286 19.85998535 249.93423462 C19.8480151 244.65112418 19.84806285 239.3682196 19.85857964 234.08512115 C19.87351883 226.43795496 19.86360443 218.79097434 19.84706045 211.14381871 C19.82059175 198.72543145 19.80974072 186.3070858 19.81079102 173.88867188 C19.81084934 173.14537867 19.81090766 172.40208547 19.81096775 171.63626823 C19.81123358 168.62484924 19.81155086 165.61343026 19.81193101 162.60201128 C19.81289652 154.32061112 19.81157055 146.03921223 19.80883789 137.7578125 C19.808598 137.01663772 19.80835811 136.27546295 19.80811094 135.51182833 C19.80370128 123.14478691 19.7874544 110.77778408 19.7636171 98.41076541 C19.74955805 90.78531552 19.74665606 83.16001247 19.75823999 75.53455755 C19.76644166 69.68786006 19.75969678 63.8412415 19.74755096 57.9945488 C19.74514405 55.59841995 19.74788287 53.20227955 19.75615883 50.80616379 C19.76678587 47.53345528 19.75902342 44.26127791 19.74681091 40.98858643 C19.758175 39.56852763 19.758175 39.56852763 19.76976866 38.11978078 C19.72343531 32.25789897 18.86338312 27.89688638 16.375 22.5625 C12.61540755 18.89689736 9.52981047 17.45751581 4.3203125 17.421875 C3.15048828 17.39287109 3.15048828 17.39287109 1.95703125 17.36328125 C0.32706909 17.32959364 -1.3032856 17.31121062 -2.93359375 17.30859375 C-7.27811431 17.17260381 -9.11836581 16.95683899 -12.65625 14.203125 C-14.625 11.5625 -14.625 11.5625 -15.25 8.5625 C-13.50384248 0.18094389 -7.22538245 -0.22453647 0 0 Z " fill="#000000" transform="translate(435.625,86.4375)"/>
<path d="M0 0 C0.8677002 -0.0157608 1.73540039 -0.03152161 2.62939453 -0.04776001 C3.55864746 -0.03763885 4.48790039 -0.0275177 5.4453125 -0.01708984 C6.40679199 -0.02187347 7.36827148 -0.0266571 8.35888672 -0.03158569 C10.3896651 -0.03498488 12.42049818 -0.02578113 14.45117188 -0.00488281 C17.55983474 0.02188244 20.66488695 -0.00462999 23.7734375 -0.03662109 C25.7474038 -0.033317 27.72136786 -0.02691077 29.6953125 -0.01708984 C31.08919189 -0.03227158 31.08919189 -0.03227158 32.51123047 -0.04776001 C38.93423576 0.0689067 38.93423576 0.0689067 42.15625 2.99707031 C43.88593212 6.23843249 44.18683514 8.02490214 43.5703125 11.64697266 C41.7032134 13.94972822 40.21383509 15.32521136 37.5703125 16.64697266 C27.6703125 16.64697266 17.7703125 16.64697266 7.5703125 16.64697266 C7.5703125 46.34697266 7.5703125 76.04697266 7.5703125 106.64697266 C14.1703125 106.64697266 20.7703125 106.64697266 27.5703125 106.64697266 C27.54412842 104.64352783 27.51794434 102.64008301 27.4909668 100.57592773 C27.4080516 93.95038272 27.35286271 87.32481455 27.31125164 80.69888783 C27.28517743 76.68219837 27.24982072 72.66604127 27.19311523 68.6496582 C27.13871541 64.77223684 27.10887559 60.8953269 27.09592628 57.01755333 C27.08670048 55.53953692 27.06868392 54.06154795 27.04166222 52.58374977 C27.00526162 50.51021891 27.00037111 48.43879012 27.00268555 46.36499023 C26.98603096 44.59627312 26.98603096 44.59627312 26.96903992 42.79182434 C27.75215198 38.69589285 29.35572541 37.21569413 32.5703125 34.64697266 C35.5703125 34.02197266 35.5703125 34.02197266 38.5703125 34.64697266 C42.02686613 37.33727773 43.42157624 38.81145705 44.19850159 43.17578125 C44.22498725 44.54873579 44.22423483 45.92238978 44.20141602 47.29541016 C44.20857132 48.04888733 44.21572662 48.8023645 44.22309875 49.57867432 C44.23995803 52.06039735 44.22060149 54.54030671 44.19921875 57.02197266 C44.20004771 58.75162912 44.20250813 60.48128551 44.20652771 62.2109375 C44.20938379 65.8324358 44.19470354 69.45331498 44.16723633 73.07470703 C44.13315347 77.71201104 44.13917332 82.34820819 44.1578989 86.98556519 C44.16847792 90.55616446 44.15952296 94.12650709 44.14451408 97.69708252 C44.13933841 99.40666949 44.13980662 101.11628333 44.14605904 102.8258667 C44.15152234 105.21734042 44.13110282 107.60724083 44.10375977 109.99853516 C44.11028564 110.70206116 44.11681152 111.40558716 44.12353516 112.13043213 C44.05654773 115.58366433 43.59897514 117.59903651 41.81382751 120.58456421 C39.32287366 122.87443712 38.45554224 123.27661063 35.140625 123.29394531 C34.2729248 123.30970612 33.40522461 123.32546692 32.51123047 123.34170532 C31.58197754 123.33158417 30.65272461 123.32146301 29.6953125 123.31103516 C28.73383301 123.31581879 27.77235352 123.32060242 26.78173828 123.32553101 C24.7509599 123.32893019 22.72012682 123.31972645 20.68945312 123.29882812 C17.58079026 123.27206287 14.47573805 123.29857531 11.3671875 123.33056641 C9.3932212 123.32726231 7.41925714 123.32085608 5.4453125 123.31103516 C4.05143311 123.32621689 4.05143311 123.32621689 2.62939453 123.34170532 C1.76169434 123.32594452 0.89399414 123.31018372 0 123.29394531 C-1.14106201 123.28797836 -1.14106201 123.28797836 -2.30517578 123.28189087 C-5.76468426 122.24800392 -6.67040271 120.78639869 -8.4296875 117.64697266 C-9.01334765 114.05625776 -8.97605088 110.50878775 -8.94726562 106.87744141 C-8.9542749 105.79234283 -8.96128418 104.70724426 -8.96850586 103.58926392 C-8.98610437 100.00407283 -8.97445577 96.41967171 -8.9609375 92.83447266 C-8.96363186 90.34252776 -8.96751381 87.85058388 -8.97253418 85.35864258 C-8.97918701 79.46789761 -8.9651925 73.5774391 -8.9439311 67.68673611 C-8.92891252 62.99139955 -8.93422497 58.29639832 -8.95117188 53.60107422 C-8.97434731 47.12430088 -8.97799899 40.64785168 -8.96495056 34.17105103 C-8.96228126 31.70227991 -8.96556014 29.233495 -8.97486877 26.76473999 C-8.98502164 23.31495538 -8.96954927 19.866211 -8.94726562 16.41650391 C-8.95536255 15.3950528 -8.96345947 14.37360168 -8.97180176 13.32119751 C-8.92007918 9.00139267 -8.81481922 6.33423633 -6.67419434 2.51431274 C-4.18472163 0.44317083 -3.19021782 0.01668259 0 0 Z " fill="#000000" transform="translate(333.4296875,215.35302734375)"/>
<path d="M0 0 C0.92771068 -0.0055344 1.85542136 -0.01106879 2.81124449 -0.0167709 C5.92135079 -0.03038936 9.03065627 -0.01540141 12.14074707 -0.00050354 C14.36980022 -0.00428627 16.59885103 -0.00978593 18.82789612 -0.01687622 C24.88362745 -0.03085398 30.9390754 -0.01964457 36.99479103 -0.00316501 C43.32790991 0.01067077 49.66101209 0.00422709 55.99414062 0.0007019 C66.63013921 -0.00200138 77.26601357 0.01139806 87.90197754 0.03465271 C98.84375189 0.05857328 109.78537705 0.06565689 120.72717285 0.05516052 C133.91466503 0.04253253 147.10207072 0.04504329 160.28956604 0.06081963 C165.32615267 0.0665828 170.36268936 0.06649413 175.39927673 0.06175423 C181.32872524 0.05698694 187.25796687 0.06707607 193.18737602 0.08870888 C195.36545044 0.09428026 197.54354472 0.09473884 199.72162056 0.08975601 C202.69102786 0.08381406 205.65980034 0.09628775 208.62915039 0.11352539 C209.49442085 0.10751535 210.35969131 0.1015053 211.25118208 0.09531313 C215.91834631 0.14469937 219.03070861 0.4550041 222.8145752 3.50120544 C224.25888374 6.38982254 224.19146025 8.29768246 223.8145752 11.50120544 C221.83006535 14.21633687 220.22990365 16.1700537 216.85134208 16.96055329 C214.40359284 17.14498868 212.0010839 17.16264475 209.54649353 17.12939453 C208.60991018 17.13648892 207.67332683 17.14358331 206.70836216 17.15089267 C203.56813824 17.1685033 200.429147 17.15035183 197.28894043 17.13230896 C195.0385583 17.13744655 192.7881802 17.14472661 190.53781128 17.1539917 C184.42424633 17.17253301 178.31111654 17.15954996 172.19756961 17.1399014 C165.80525613 17.12353835 159.41297073 17.13232444 153.02064514 17.13742065 C142.28625822 17.1419439 131.55208764 17.12616082 120.81774902 17.09812927 C109.77210253 17.06928515 98.72670411 17.06221157 87.68103027 17.07762146 C74.37032127 17.09616588 61.05979251 17.094451 47.74907112 17.07540703 C42.66419475 17.06852555 37.57941055 17.06958024 32.49453545 17.07695198 C26.5100403 17.08459912 20.52590355 17.07253976 14.54146957 17.04510307 C12.3420156 17.038202 10.14252826 17.0381396 7.94307518 17.0453186 C4.94687122 17.05397311 1.95178357 17.03812481 -1.04432678 17.01586914 C-1.92029198 17.02410991 -2.79625717 17.03235067 -3.69876677 17.04084116 C-9.57544573 16.95994723 -9.57544573 16.95994723 -12.72134304 14.59403896 C-14.29588663 12.34330565 -14.7532396 11.22238215 -14.7479248 8.50120544 C-14.76983887 7.84120544 -14.79175293 7.18120544 -14.81433105 6.50120544 C-12.65355939 -0.37031688 -5.93290933 -0.06585875 0 0 Z " fill="#000000" transform="translate(153.1854248046875,144.49879455566406)"/>
<path d="M0 0 C1.40253504 -0.01041829 1.40253504 -0.01041829 2.83340412 -0.02104706 C5.97422439 -0.03937929 9.11429462 -0.02903529 12.25514221 -0.01878357 C14.50375435 -0.02583888 16.75236173 -0.03458226 19.0009613 -0.04489136 C25.11457903 -0.06743855 31.22793853 -0.06443308 37.34158206 -0.05556989 C42.44122302 -0.05046835 47.54081509 -0.05774579 52.64045101 -0.06504196 C65.3569774 -0.0830315 78.0733227 -0.07661304 90.78983349 -0.05887216 C101.83436419 -0.04417645 112.87862281 -0.05880083 123.92311846 -0.08764232 C135.26298077 -0.11703464 146.60268251 -0.12750075 157.94259411 -0.11846012 C164.30935752 -0.1135237 170.67590942 -0.11578534 177.04264641 -0.13624763 C183.02881116 -0.15456486 189.01446924 -0.14869402 195.00060654 -0.12404823 C197.19964786 -0.11902786 199.39872751 -0.1225617 201.59773827 -0.13519669 C204.59601952 -0.15106331 207.5926193 -0.13623602 210.59082031 -0.11352539 C211.46455479 -0.12536112 212.33828926 -0.13719685 213.23850054 -0.14939123 C217.60120003 -0.08208552 219.33810362 0.11179656 222.89909458 2.86642551 C224.85890198 5.5146637 224.85890198 5.5146637 225.48390198 8.5146637 C224.62212507 12.65119287 223.19193163 13.93400468 219.85890198 16.5146637 C216.78272286 17.2387749 213.78437804 17.18573217 210.63551331 17.14285278 C209.70371907 17.14994717 208.77192484 17.15704156 207.81189442 17.16435093 C204.68782182 17.18196104 201.56498837 17.16381032 198.44093323 17.14576721 C196.20202568 17.15090486 193.96312218 17.15818496 191.72422791 17.16744995 C185.6415858 17.18599163 179.55938105 17.17300756 173.47675705 17.15335965 C167.11560797 17.13699488 160.75448706 17.14578302 154.39332581 17.15087891 C143.71022044 17.15540228 133.02730803 17.13961909 122.34425354 17.11158752 C111.35394521 17.08275016 100.3638862 17.07566658 89.37355042 17.09107971 C76.12768548 17.10963064 62.88196853 17.10790377 49.63609314 17.08886528 C44.5771629 17.08198701 39.51832532 17.08303524 34.45939636 17.09041023 C28.50362472 17.098063 22.54821285 17.08597946 16.59250259 17.05856133 C14.4047566 17.05166589 12.21697708 17.05159186 10.02923203 17.05877686 C7.0465147 17.06744498 4.06491442 17.05155966 1.08229065 17.02932739 C-0.22145146 17.04168854 -0.22145146 17.04168854 -1.55153179 17.05429941 C-5.62098192 16.99817807 -7.65180794 16.82191097 -11.17825317 14.60749722 C-13.14109802 12.5146637 -13.14109802 12.5146637 -13.77000427 10.5146637 C-13.74809021 9.8546637 -13.72617615 9.1946637 -13.70359802 8.5146637 C-13.70488708 7.8546637 -13.70617615 7.1946637 -13.70750427 6.5146637 C-11.73154782 -0.46250669 -6.04826808 -0.05689994 0 0 Z " fill="#000000" transform="translate(152.14109802246094,111.48533630371094)"/>
<path d="M0 0 C1.37675209 -0.00339833 1.37675209 -0.00339833 2.78131735 -0.00686532 C5.86973731 -0.01321666 8.95811352 -0.01237523 12.04653931 -0.0115509 C14.25559038 -0.01454169 16.46464094 -0.01794403 18.6736908 -0.02172852 C24.68399056 -0.03058093 30.69427609 -0.03290715 36.70458174 -0.0335443 C41.71716959 -0.03449247 46.72975411 -0.0381697 51.74234068 -0.0417164 C62.89008685 -0.04939987 74.03782776 -0.05238459 85.18557601 -0.05171105 C86.18917227 -0.05165111 86.18917227 -0.05165111 87.21304321 -0.05158997 C87.88292348 -0.05154909 88.55280375 -0.0515082 89.24298342 -0.05146609 C100.09996095 -0.05105961 110.95690381 -0.06062911 121.81387131 -0.07472833 C132.95930348 -0.08908805 144.10472294 -0.09581554 155.25016558 -0.09513456 C161.50845111 -0.09487922 167.76669739 -0.09774988 174.02497482 -0.10831261 C179.9100176 -0.11797378 185.79498347 -0.11808638 191.68002892 -0.11079597 C193.8419843 -0.10974767 196.00394442 -0.11212755 198.16589165 -0.11815643 C201.1133712 -0.12584452 204.06058307 -0.12125262 207.00805664 -0.11352539 C208.29633584 -0.12124074 208.29633584 -0.12124074 209.61064088 -0.12911195 C213.84625207 -0.10451355 217.35356895 -0.02090575 221.13101196 2.13371277 C223.4726996 5.64624423 223.62724874 6.99840632 223.13101196 11.13371277 C221.6816864 13.78976345 221.6816864 13.78976345 219.13101196 16.13371277 C216.07583048 16.88203694 213.07776634 16.80400787 209.94522095 16.76190186 C208.53550223 16.77254344 208.53550223 16.77254344 207.09730434 16.7834 C203.94015861 16.80103773 200.78423457 16.78284537 197.62710571 16.76481628 C195.36701902 16.76995287 193.10693632 16.77723218 190.84686279 16.78649902 C184.70224883 16.80505414 178.55806733 16.79204821 172.41347122 16.77240872 C165.99045536 16.75605499 159.56746759 16.76483055 153.1444397 16.76992798 C142.35699844 16.7744526 131.56977236 16.75866033 120.78237915 16.7306366 C109.68139448 16.70179856 98.58065663 16.69471529 87.47964478 16.71012878 C74.1052503 16.72867336 60.73103521 16.72695745 47.35662842 16.70791435 C42.24663242 16.7010323 37.13672814 16.70208817 32.0267334 16.7094593 C26.0118835 16.71710661 19.9973902 16.70504651 13.98260117 16.6776104 C11.77186008 16.67070919 9.56108581 16.67064706 7.35034561 16.67782593 C4.33876346 16.68648022 1.32829199 16.67063238 -1.68319702 16.64837646 C-2.56373528 16.65661723 -3.44427355 16.664858 -4.35149479 16.67334849 C-10.25654427 16.59247717 -10.25654427 16.59247717 -13.41209412 14.22874355 C-15.87885055 10.68151846 -15.34080182 8.3800368 -14.86898804 4.13371277 C-11.42604998 -0.9487196 -5.50953389 -0.00988293 0 0 Z " fill="#000000" transform="translate(153.86898803710938,177.8662872314453)"/>
<path d="M0 0 C0.80433472 -0.00930542 1.60866943 -0.01861084 2.43737793 -0.02819824 C3.29271118 -0.01180298 4.14804443 0.00459229 5.02929688 0.02148438 C5.92040161 0.02144409 6.81150635 0.02140381 7.72961426 0.0213623 C9.60904005 0.02671117 11.48846575 0.04426687 13.36767578 0.07324219 C16.23865369 0.11509743 19.10728399 0.1143085 21.97851562 0.10742188 C23.80795895 0.1179152 25.63739023 0.13085408 27.46679688 0.14648438 C28.32213013 0.14668579 29.17746338 0.14688721 30.05871582 0.14709473 C34.72146086 0.23933614 38.01892182 0.49599578 41.74804688 3.61523438 C42.94396473 7.20298795 42.91127895 10.48486572 42.92504883 14.22021484 C42.93490562 15.37925323 42.93490562 15.37925323 42.94496155 16.56170654 C42.96467174 19.11861265 42.97635087 21.67546014 42.98632812 24.23242188 C42.99040365 25.10603489 42.99447918 25.9796479 42.99867821 26.87973404 C43.01952734 31.50201429 43.03383512 36.12426494 43.04321289 40.74658203 C43.05428635 45.52056441 43.08870016 50.29408185 43.12838459 55.0678997 C43.15452326 58.73964304 43.16290217 62.41127499 43.16649437 66.08310318 C43.17136597 67.84296948 43.18299631 69.60283062 43.20153236 71.36260605 C43.22587021 73.82593496 43.22496924 76.28805261 43.21801758 78.75146484 C43.23082764 79.47683441 43.2436377 80.20220398 43.25683594 80.94955444 C43.2207481 84.4610923 42.80131225 86.52551112 40.99552917 89.567276 C38.49898006 91.84218987 37.62833984 92.24215309 34.31835938 92.24633789 C33.45065918 92.258871 32.58295898 92.27140411 31.68896484 92.28431702 C30.75971191 92.27105881 29.83045898 92.2578006 28.87304688 92.24414062 C27.91156738 92.24655258 26.95008789 92.24896454 25.95947266 92.25144958 C23.92866894 92.25047102 21.89783859 92.23707515 19.8671875 92.2121582 C16.75884377 92.17785353 13.65334329 92.19149756 10.54492188 92.2109375 C8.57095144 92.20403894 6.59698834 92.19436646 4.62304688 92.18164062 C3.69379395 92.18660049 2.76454102 92.19156036 1.80712891 92.19667053 C0.93942871 92.1808342 0.07172852 92.16499786 -0.82226562 92.14868164 C-1.58297363 92.14248306 -2.34368164 92.13628448 -3.12744141 92.12989807 C-6.27069087 91.36844481 -7.37560977 90.24367662 -9.25195312 87.61523438 C-9.65182329 84.84895891 -9.80964029 82.47861565 -9.78540039 79.71313477 C-9.79401596 78.92078934 -9.80263153 78.12844391 -9.81150818 77.31208801 C-9.83419332 74.69535566 -9.82742466 72.07969214 -9.81835938 69.46289062 C-9.82359413 67.64212221 -9.82987006 65.82135651 -9.83714294 64.00059509 C-9.84755204 60.1849186 -9.84297887 56.36961492 -9.82836914 52.55395508 C-9.81118683 47.66655413 -9.83466663 42.7803294 -9.86985874 37.89305973 C-9.89183137 34.13289107 -9.89039152 30.37300387 -9.88209343 26.61279106 C-9.88127371 24.81107735 -9.88814112 23.00934302 -9.90286446 21.20768929 C-9.92030706 18.68663639 -9.9057721 16.1676968 -9.88305664 13.64672852 C-9.89474884 12.90422852 -9.90644104 12.16172852 -9.91848755 11.39672852 C-9.84770534 7.53119736 -9.35695076 5.75208736 -6.97825623 2.65171814 C-4.27691562 0.63388077 -3.27758567 -0.00958963 0 0 Z M6.74804688 16.61523438 C6.74804688 36.08523438 6.74804688 55.55523437 6.74804688 75.61523438 C13.34804688 75.61523438 19.94804687 75.61523438 26.74804688 75.61523438 C26.74804688 56.14523437 26.74804688 36.67523438 26.74804688 16.61523438 C20.14804687 16.61523438 13.54804688 16.61523438 6.74804688 16.61523438 Z " fill="#000000" transform="translate(272.251953125,246.384765625)"/>
<path d="M0 0 C0.82758316 -0.01260864 1.65516632 -0.02521729 2.50782776 -0.03820801 C3.38817184 -0.03011108 4.26851593 -0.02201416 5.17553711 -0.01367188 C6.54904579 -0.01941223 6.54904579 -0.01941223 7.95030212 -0.02526855 C9.8809418 -0.02798416 11.8116185 -0.02064761 13.7421875 -0.00390625 C16.69671534 0.01753338 19.6488184 -0.00373209 22.60327148 -0.02929688 C24.48153205 -0.02665402 26.35979112 -0.02152991 28.23803711 -0.01367188 C29.12040543 -0.0217688 30.00277374 -0.02986572 30.91188049 -0.03820801 C37.0286974 0.05534107 37.0286974 0.05534107 40.16552734 2.42578125 C42.53966718 5.79304332 42.77284512 7.7108936 42.80151367 11.8059082 C42.81112122 12.91078079 42.82072876 14.01565338 42.83062744 15.15400696 C42.83487732 16.35293076 42.8391272 17.55185455 42.84350586 18.78710938 C42.84920593 20.01539963 42.85490601 21.24368988 42.86077881 22.50920105 C42.87023956 25.11265193 42.87676704 27.71611485 42.88061523 30.31958008 C42.88716881 34.30305961 42.92132755 38.28617249 42.95288086 42.26953125 C42.95941125 44.79622089 42.96466158 47.32291422 42.96850586 49.84960938 C42.98085266 51.04246048 42.99319946 52.23531158 43.00592041 53.46430969 C43.00291931 54.57863876 42.99991821 55.69296783 42.99682617 56.84106445 C43.00229462 58.30761223 43.00229462 58.30761223 43.00787354 59.80378723 C42.57219777 63.02108382 41.53728047 64.90463666 39.64038086 67.51757812 C37.36472464 68.65540623 36.05871066 68.661267 33.52954102 68.69458008 C32.25779526 68.71383293 32.25779526 68.71383293 30.96035767 68.73347473 C30.04265594 68.74086166 29.12495422 68.7482486 28.17944336 68.75585938 C27.23733002 68.76393112 26.29521667 68.77200287 25.32455444 68.78031921 C23.3289372 68.79416233 21.33329626 68.80488346 19.33764648 68.81274414 C16.2844569 68.8299705 13.23234628 68.87385593 10.17944336 68.91796875 C8.24195133 68.92809439 6.30445009 68.93661089 4.36694336 68.94335938 C2.99646347 68.96962151 2.99646347 68.96962151 1.59829712 68.99641418 C0.31709488 68.99202583 0.31709488 68.99202583 -0.98999023 68.98754883 C-2.11345352 68.99634819 -2.11345352 68.99634819 -3.25961304 69.00532532 C-6.3238709 68.29362112 -7.48431112 67.00977939 -9.35961914 64.51757812 C-9.87428284 61.78564453 -9.87428284 61.78564453 -9.89306641 58.61914062 C-9.91682091 56.83709229 -9.91682091 56.83709229 -9.9410553 55.01904297 C-9.93609543 53.73980957 -9.93113556 52.46057617 -9.92602539 51.14257812 C-9.93222397 49.82596191 -9.93842255 48.5093457 -9.94480896 47.15283203 C-9.95520699 44.36863702 -9.95066071 41.5849533 -9.93603516 38.80078125 C-9.91883958 35.23590427 -9.94235145 31.67263794 -9.97752476 28.10794067 C-10.00478606 24.70272451 -9.99476372 21.29789845 -9.98852539 17.89257812 C-10.0017836 16.61334473 -10.01504181 15.33411133 -10.02870178 14.01611328 C-10.00990211 12.23406494 -10.00990211 12.23406494 -9.99072266 10.41601562 C-9.98976089 9.37106934 -9.98879913 8.32612305 -9.98780823 7.24951172 C-9.35961914 4.51757812 -9.35961914 4.51757812 -7.09265137 2.18127441 C-4.37235307 0.52532973 -3.11629532 0.01371756 0 0 Z M6.64038086 16.51757812 C6.64038086 28.39757812 6.64038086 40.27757812 6.64038086 52.51757812 C13.24038086 52.51757812 19.84038086 52.51757812 26.64038086 52.51757812 C26.64038086 40.63757813 26.64038086 28.75757813 26.64038086 16.51757812 C20.04038086 16.51757812 13.44038086 16.51757812 6.64038086 16.51757812 Z " fill="#000000" transform="translate(210.359619140625,269.482421875)"/>
<path d="M0 0 C1.40892517 -0.00574036 1.40892517 -0.00574036 2.84631348 -0.01159668 C4.83000766 -0.01431576 6.8137377 -0.00695484 8.79736328 0.00976562 C11.83317016 0.03117539 14.86661046 0.00996393 17.90234375 -0.015625 C19.83073439 -0.01298172 21.75912356 -0.00785675 23.6875 0 C24.59487915 -0.00809692 25.5022583 -0.01619385 26.43713379 -0.02453613 C32.70698069 0.06872348 32.70698069 0.06872348 35.88476562 2.37695312 C38.59914308 6.38492948 38.51805534 10.16970007 38.546875 14.83203125 C38.55257507 15.54602585 38.55827515 16.26002045 38.56414795 16.99565125 C38.57358651 18.50611902 38.58012739 20.01660727 38.58398438 21.52709961 C38.59367129 23.82507786 38.62469606 26.12215414 38.65625 28.41992188 C38.66278256 29.89061971 38.66803204 31.36132392 38.671875 32.83203125 C38.6842218 33.51348709 38.6965686 34.19494293 38.70928955 34.89704895 C38.68808032 39.49457648 37.76834073 42.63058083 35.34375 46.53125 C33.06809378 47.66907811 31.7620798 47.67493888 29.23291016 47.70825195 C27.9611644 47.72750481 27.9611644 47.72750481 26.66372681 47.74714661 C25.74602509 47.75453354 24.82832336 47.76192047 23.8828125 47.76953125 C22.94069916 47.777603 21.99858582 47.78567474 21.02792358 47.79399109 C19.03230634 47.8078342 17.0366654 47.81855534 15.04101562 47.82641602 C11.98782604 47.84364237 8.93571542 47.8875278 5.8828125 47.93164062 C3.94532047 47.94176626 2.00781923 47.95028277 0.0703125 47.95703125 C-1.30016739 47.98329338 -1.30016739 47.98329338 -2.69833374 48.01008606 C-6.45803949 47.99720838 -8.93359044 47.9460289 -12.23095703 46.0534668 C-14.34496797 42.31248581 -14.22929639 38.98224867 -14.1875 34.75 C-14.1913269 33.89950073 -14.19515381 33.04900146 -14.19909668 32.17272949 C-14.20181458 30.37734796 -14.19446182 28.58192676 -14.17773438 26.78662109 C-14.15632167 24.04044207 -14.17753871 21.29687903 -14.203125 18.55078125 C-14.2004817 16.80468173 -14.19535667 15.05858384 -14.1875 13.3125 C-14.19559692 12.49261597 -14.20369385 11.67273193 -14.21203613 10.82800293 C-14.15447324 7.32365494 -13.97757874 5.0966481 -12.2265625 2.015625 C-8.25396678 -0.27857922 -4.51163814 -0.04025923 0 0 Z M2.34375 16.53125 C2.34375 21.48125 2.34375 26.43125 2.34375 31.53125 C8.94375 31.53125 15.54375 31.53125 22.34375 31.53125 C22.34375 26.58125 22.34375 21.63125 22.34375 16.53125 C15.74375 16.53125 9.14375 16.53125 2.34375 16.53125 Z " fill="#000000" transform="translate(152.65625,290.46875)"/>
<path d="M0 0 C0.97517578 -0.01998047 1.95035156 -0.03996094 2.95507812 -0.06054688 C10.00008634 -0.05571159 10.00008634 -0.05571159 13.30078125 2.3125 C14.93923669 4.82325989 15.54111914 6.43669246 15.6875 9.4375 C14.93477225 12.37998121 14.49043669 13.93824571 11.87426758 15.56494141 C9.54347261 16.49496945 7.88471526 16.69055019 5.38671875 16.7109375 C4.57396484 16.7315625 3.76121094 16.7521875 2.92382812 16.7734375 C1.23642782 16.79929804 -0.45110602 16.81763508 -2.13867188 16.828125 C-8.00712897 16.99486885 -11.48434191 18.04338627 -16.3125 21.4375 C-19.69183266 25.94327688 -20.43259955 29.97824876 -20.4543457 35.50976562 C-20.46138016 36.51761108 -20.46841461 37.52545654 -20.47566223 38.56384277 C-20.47982651 39.64621216 -20.48399078 40.72858154 -20.48828125 41.84375 C-20.51146948 44.13672803 -20.5355864 46.42969683 -20.56054688 48.72265625 C-20.59573212 52.3371407 -20.62505101 55.95128266 -20.63842773 59.56591797 C-20.65386518 63.0547817 -20.69403672 66.54264846 -20.73828125 70.03125 C-20.73637283 71.11361938 -20.73446442 72.19598877 -20.73249817 73.31115723 C-20.74898911 74.31900269 -20.76548004 75.32684814 -20.7824707 76.36523438 C-20.78833694 77.25029663 -20.79420319 78.13535889 -20.80024719 79.04724121 C-21.48439089 82.23957214 -22.76964108 83.44762329 -25.3125 85.4375 C-29.06599462 85.90668683 -31.35098453 85.96886381 -34.6875 84.125 C-37.46769261 81.23787691 -37.44367928 78.38697488 -37.47363281 74.57397461 C-37.48324036 73.58541977 -37.4928479 72.59686493 -37.50274658 71.57835388 C-37.50699646 70.50964554 -37.51124634 69.44093719 -37.515625 68.33984375 C-37.52132507 67.23580704 -37.52702515 66.13177032 -37.53289795 64.99427795 C-37.54235215 62.65317748 -37.54888359 60.31206367 -37.55273438 57.97094727 C-37.5623959 54.41333245 -37.59339772 50.85630624 -37.625 47.29882812 C-37.63153469 45.02083675 -37.63678333 42.74284126 -37.640625 40.46484375 C-37.6529718 39.41030502 -37.6653186 38.3557663 -37.67803955 37.26927185 C-37.64650666 26.65057083 -35.25672193 17.63859468 -28.3125 9.4375 C-20.16572577 1.56572237 -11.01495892 -0.08170233 0 0 Z " fill="#000000" transform="translate(77.3125,86.5625)"/>
<path d="M0 0 C1.23262825 -0.00788544 1.23262825 -0.00788544 2.49015808 -0.01593018 C5.19871184 -0.02910295 7.90667493 -0.02040183 10.61523438 -0.01025391 C12.5018322 -0.01227543 14.38842926 -0.01518752 16.27502441 -0.01895142 C20.22590588 -0.02337108 24.17658365 -0.01695521 28.12744141 -0.00292969 C33.18829818 0.01416196 38.24867764 0.00431886 43.30951691 -0.01364708 C47.20432116 -0.02449456 51.09901251 -0.02103414 54.99382019 -0.0132637 C56.85971636 -0.01126437 58.72562282 -0.01371161 60.59150696 -0.02070236 C63.20060327 -0.02833269 65.80892969 -0.01669069 68.41796875 0 C69.18694992 -0.00607269 69.95593109 -0.01214539 70.74821472 -0.0184021 C75.2339336 0.03468146 78.14766261 0.59959444 81.70898438 3.38818359 C83.25485313 6.47992111 83.00257959 8.98247912 82.70898438 12.38818359 C81.21775818 14.58140564 81.21775818 14.58140564 78.70898438 16.38818359 C75.76695527 16.78788754 73.19804799 16.94561048 70.25610352 16.92163086 C69.40523666 16.93024643 68.55436981 16.938862 67.67771912 16.94773865 C64.86621646 16.97043375 62.05570777 16.96365309 59.24414062 16.95458984 C57.28885094 16.95982411 55.3335638 16.96609987 53.37828064 16.97337341 C49.28014241 16.98378435 45.18235126 16.97920654 41.08422852 16.96459961 C35.83365278 16.94741661 30.58417184 16.97089749 25.3337183 17.00608921 C21.29561619 17.02805594 17.25777629 17.02662338 13.2196331 17.0183239 C11.28394813 17.01750387 9.34824401 17.02437713 7.41261482 17.03909492 C4.70481339 17.05652622 1.99898211 17.04201071 -0.70874023 17.01928711 C-1.90664688 17.03682541 -1.90664688 17.03682541 -3.12875366 17.05471802 C-7.21564694 16.98497733 -9.06595526 16.56817915 -12.29957581 13.98204041 C-14.29101562 11.38818359 -14.29101562 11.38818359 -14.73632812 9.25537109 C-14.630625 8.59794922 -14.52492187 7.94052734 -14.41601562 7.26318359 C-14.33609375 6.60060547 -14.25617188 5.93802734 -14.17382812 5.25537109 C-11.5323384 -0.33149655 -5.38081019 -0.0424926 0 0 Z " fill="#000000" transform="translate(148.291015625,38.61181640625)"/>
</svg>
