<?xml version="1.0" encoding="UTF-8"?>
<svg version="1.1" xmlns="http://www.w3.org/2000/svg" width="512" height="512">
<path d="M0 0 C5.46687245 4.27076479 10.63520639 8.81196454 15.6875 13.5625 C16.33976562 14.13871094 16.99203125 14.71492188 17.6640625 15.30859375 C27.51215002 24.40692975 36.23962377 37.30477849 41.6875 49.5625 C41.6875 50.2225 41.6875 50.8825 41.6875 51.5625 C42.47511719 51.53929688 43.26273437 51.51609375 44.07421875 51.4921875 C61.56488299 51.20240135 76.71795968 54.1178652 89.6875 66.5625 C103.04468557 80.48308179 105.08592394 96.89870713 104.78417969 115.48413086 C104.77051438 116.822911 104.75798075 118.16170309 104.74647522 119.50050354 C104.72094307 122.3557766 104.69026649 125.21093044 104.65624237 128.06611443 C104.60509635 132.59502854 104.58289568 137.12380874 104.56744385 141.65296936 C104.56336789 142.80640781 104.56336789 142.80640781 104.55920959 143.98314804 C104.55377801 145.55398463 104.54844278 147.12482156 104.54320192 148.6956588 C104.50763858 159.21796177 104.45648209 169.7390348 104.31396484 180.26049805 C104.2176088 187.38978247 104.17160851 194.51747536 104.18256879 201.64742762 C104.18641567 205.40740731 104.165772 209.16343352 104.08321381 212.92259026 C103.04589024 230.93216429 103.04589024 230.93216429 110.64328384 246.42271519 C113.0202587 248.58758168 115.50501883 250.49233396 118.13509369 252.3374958 C123.99767874 256.96366309 125.59732981 265.54247361 126.53125 272.546875 C127.04942933 282.54773609 123.79417295 290.94249293 117.1875 298.375 C113.50025171 301.60134226 110.11382593 304.43823787 105.6875 306.5625 C105.67536972 307.44001167 105.67536972 307.44001167 105.66299438 308.33525085 C105.57619928 314.48485179 105.47667401 320.63415772 105.37011719 326.78344727 C105.33209342 329.07115684 105.29719685 331.3589208 105.265625 333.64672852 C104.68836478 374.96593301 104.68836478 374.96593301 89.6875 390.5625 C77.85852197 401.4946963 65.86222071 404.87828657 50.13305664 404.78955078 C48.7625835 404.78898598 47.39210975 404.78930458 46.02163696 404.79043579 C42.31757057 404.79100761 38.61363475 404.77928111 34.90959859 404.76528788 C31.03254824 404.75275192 27.15549461 404.75160776 23.27842712 404.74923706 C15.94398467 404.74303069 8.60960212 404.72663133 1.275186 404.70653808 C-7.0778924 404.68415279 -15.43097372 404.67317904 -23.78407466 404.66314721 C-40.96025202 404.64226432 -58.13636738 404.60670006 -75.3125 404.5625 C-75.3125 412.4825 -75.3125 420.4025 -75.3125 428.5625 C-72.3425 428.5625 -69.3725 428.5625 -66.3125 428.5625 C-53.13212893 431.22169767 -42.18106289 438.78532437 -34.3125 449.5625 C-29.25942609 458.0638089 -26.04781758 466.20474305 -25.875 476.1875 C-25.83503906 477.45851563 -25.79507812 478.72953125 -25.75390625 480.0390625 C-26.47089184 484.56158702 -27.74365534 485.75325987 -31.3125 488.5625 C-34.08726652 489.0560629 -36.24927372 489.24068779 -39.01733398 489.19741821 C-39.78578612 489.20521817 -40.55423826 489.21301812 -41.34597683 489.22105443 C-43.91733886 489.24097611 -46.48722112 489.22521023 -49.05859375 489.20947266 C-50.90342065 489.21624873 -52.74824078 489.22515181 -54.5930481 489.23602295 C-59.60136105 489.25882404 -64.60915923 489.24997655 -69.61748123 489.23412752 C-74.85755048 489.22147277 -80.09757551 489.23320746 -85.33764648 489.24105835 C-94.13761309 489.25015614 -102.93736992 489.23816355 -111.73730469 489.21435547 C-121.91273148 489.18714401 -132.08765736 489.19595807 -142.26307201 489.2234875 C-150.99782952 489.24617382 -159.73243619 489.24938096 -168.46721363 489.23629415 C-173.68484013 489.22849704 -178.90223114 489.22746526 -184.11984253 489.24397659 C-189.02511937 489.2584151 -193.92975012 489.24841087 -198.83495712 489.21950531 C-200.63568931 489.21289119 -202.43647582 489.21479774 -204.23718643 489.22581863 C-206.69474808 489.23947347 -209.15023668 489.22236165 -211.60766602 489.19741821 C-212.32118949 489.20857182 -213.03471296 489.21972543 -213.76985836 489.23121703 C-217.60962411 489.15556053 -219.2101655 488.64485382 -222.24082947 486.20592308 C-225.2741624 482.33543202 -225.41060985 479.36118058 -225.1484375 474.5546875 C-222.98333041 459.91269206 -217.52776272 448.25155813 -205.9375 438.75 C-196.63279399 431.94793905 -187.91223883 428.5625 -176.3125 428.5625 C-176.3125 420.6425 -176.3125 412.7225 -176.3125 404.5625 C-178.01472717 404.57138245 -179.71695435 404.58026489 -181.47076416 404.5894165 C-197.53702355 404.67061281 -213.60323294 404.73075934 -229.66965103 404.76974869 C-237.92894004 404.79032704 -246.18807532 404.81835656 -254.44726562 404.86425781 C-261.65047494 404.90427108 -268.85357287 404.92996713 -276.05689025 404.93885398 C-279.86696788 404.94404437 -283.67672697 404.9561434 -287.48670197 404.98542023 C-291.08185469 405.01281926 -294.6765614 405.02089638 -298.27180862 405.01493073 C-300.20186339 405.01653477 -302.13187095 405.03792828 -304.0617981 405.06018066 C-317.82453798 404.99591994 -329.56539033 400.61310297 -339.7890625 391.30859375 C-350.27974672 380.37933577 -354.62459338 368.32652188 -354.57992554 353.47529602 C-354.58445665 352.36705559 -354.58898776 351.25881517 -354.59365618 350.1169917 C-354.60630452 346.40778592 -354.6046795 342.6987269 -354.60302734 338.98950195 C-354.60901237 336.32816524 -354.61576144 333.66683997 -354.62338257 331.00550842 C-354.63997077 324.5286941 -354.64549115 318.05191619 -354.64660732 311.5750824 C-354.64755896 306.30742158 -354.65167505 301.03977274 -354.65800858 295.77211571 C-354.67561611 280.8224469 -354.68484837 265.87280676 -354.68334763 250.92312751 C-354.68326772 250.11777522 -354.6831878 249.31242292 -354.68310547 248.48266602 C-354.68302371 247.67632503 -354.68294195 246.86998405 -354.68285771 246.03920849 C-354.68204525 232.97886072 -354.70117397 219.91862841 -354.7293822 206.85831401 C-354.75814782 193.43347893 -354.77192043 180.00870007 -354.77019465 166.5838334 C-354.76953195 159.05270427 -354.77497123 151.52169614 -354.79655075 143.99059486 C-354.81481119 137.57692322 -354.8190703 131.16342739 -354.8055319 124.74974094 C-354.79902616 121.48130926 -354.80099454 118.21328242 -354.8162384 114.94487 C-354.83173508 111.39115643 -354.82235228 107.83831769 -354.80697632 104.28462219 C-354.81726344 103.26601319 -354.82755057 102.24740419 -354.83814943 101.19792825 C-354.7145831 88.20583551 -349.77659558 76.66516308 -341.05859375 67.0859375 C-327.55836829 54.12745464 -312.05790733 51.38477361 -294.10131836 51.44897461 C-292.4753775 51.44875557 -292.4753775 51.44875557 -290.81658936 51.4485321 C-287.2618199 51.44922439 -283.70710396 51.45698457 -280.15234375 51.46484375 C-277.67655974 51.46671036 -275.20077536 51.46813312 -272.72499084 51.46913147 C-266.22969532 51.47293749 -259.73442238 51.48275134 -253.23913574 51.49383545 C-246.60278589 51.50409083 -239.96643381 51.50863792 -233.33007812 51.51367188 C-220.32420915 51.5243754 -207.31835578 51.54123469 -194.3125 51.5625 C-193.86571899 50.16837891 -193.86571899 50.16837891 -193.40991211 48.74609375 C-184.29614365 22.3070413 -157.47103741 0.52604984 -133.3125 -11.4375 C-91.03983801 -31.60630342 -37.98326511 -27.78673974 0 0 Z M-108.3125 1.5625 C-109.45203125 1.92472656 -110.5915625 2.28695313 -111.765625 2.66015625 C-140.65126258 12.95153679 -162.62564518 33.58468512 -176.265625 60.8984375 C-187.23732071 84.55423375 -189.21825127 113.74740562 -181.3125 138.5625 C-180.76916016 140.27179688 -180.76916016 140.27179688 -180.21484375 142.015625 C-169.56061293 171.91970336 -147.9577122 194.07432786 -119.46484375 207.61230469 C-94.92338519 218.44662373 -64.05018114 219.6296104 -38.984375 209.94921875 C-35.00613921 208.31715741 -31.16326936 206.47524539 -27.3125 204.5625 C-25.85457031 203.87027344 -25.85457031 203.87027344 -24.3671875 203.1640625 C0.29819657 190.72350436 19.2160516 167.30092656 27.91357422 141.30615234 C30.06218339 134.49818153 31.81812449 127.65581384 32.6875 120.5625 C32.8215625 119.47195312 32.955625 118.38140625 33.09375 117.2578125 C35.8976764 87.62540847 26.32881215 58.66485752 7.4296875 35.77734375 C-10.30559483 14.81690828 -35.02896357 1.25115806 -62.3125 -2.4375 C-77.89366669 -3.51870488 -93.36285313 -3.20025399 -108.3125 1.5625 Z M-326.16796875 82.48828125 C-333.18014232 91.40499579 -334.4722353 100.52147323 -334.43275452 111.52854919 C-334.43361053 112.40630005 -334.43446655 113.2840509 -334.43534851 114.18840027 C-334.43699804 117.12619077 -334.43148927 120.06392373 -334.42602539 123.00170898 C-334.42571894 125.14519531 -334.42585274 127.28868173 -334.42639065 129.43216801 C-334.42661619 135.16669372 -334.42082482 140.90119852 -334.41378021 146.6357193 C-334.40808077 152.0189063 -334.40781684 157.40208825 -334.40710449 162.78527832 C-334.4018594 178.52352164 -334.38789823 194.26176109 -334.375 210 C-334.354375 245.165625 -334.33375 280.33125 -334.3125 316.5625 C-196.3725 316.5625 -58.4325 316.5625 83.6875 316.5625 C83.6875 313.5925 83.6875 310.6225 83.6875 307.5625 C83.08164062 307.37816406 82.47578125 307.19382812 81.8515625 307.00390625 C68.40609344 302.34970542 58.83437816 289.7874291 49.07852745 279.87586594 C44.97787415 275.7138233 40.86142844 271.56742532 36.74804688 267.41796875 C31.53439433 262.15627372 26.32552183 256.89005784 21.1315918 251.60888672 C16.91196837 247.31920842 12.6780104 243.04416118 8.4339695 238.77864456 C6.82217055 237.1532337 5.21580718 235.52241428 3.61499596 233.88618088 C1.38670825 231.60987951 -0.85935371 229.35268986 -3.1105957 227.09912109 C-3.76886353 226.41771057 -4.42713135 225.73630005 -5.10534668 225.03424072 C-6.78289455 223.37524697 -8.34719306 221.86739315 -10.3125 220.5625 C-13.10693466 220.42153937 -13.10693466 220.42153937 -15.3125 221.5625 C-15.940354 221.81612305 -16.56820801 222.06974609 -17.21508789 222.33105469 C-17.81571045 222.62915039 -18.41633301 222.92724609 -19.03515625 223.234375 C-50.29132215 238.21453952 -86.65141023 240.21201838 -119.53125 229.28637695 C-148.98665815 218.89509711 -174.0135541 198.59174702 -189.1171875 171.13671875 C-189.52445068 170.40432983 -189.93171387 169.67194092 -190.35131836 168.9173584 C-191.34206583 167.13444941 -192.32781441 165.34876406 -193.3125 163.5625 C-194.5940094 163.55441315 -195.8755188 163.54632629 -197.19586182 163.53799438 C-209.26194446 163.46057215 -221.32791379 163.37284271 -233.39384842 163.27497292 C-239.59734096 163.22498745 -245.80081628 163.17865749 -252.00439453 163.140625 C-257.98909964 163.10380081 -263.97366148 163.05744846 -269.95824432 163.00443649 C-272.24360394 162.98587733 -274.52899428 162.97077503 -276.81439972 162.95915604 C-280.01085642 162.94231983 -283.20698392 162.91329069 -286.40332031 162.88134766 C-287.35206528 162.87918747 -288.30081024 162.87702728 -289.27830505 162.87480164 C-290.15046158 162.86363815 -291.0226181 162.85247467 -291.92120361 162.8409729 C-292.67707386 162.83544214 -293.43294411 162.82991138 -294.21171951 162.82421303 C-296.66362444 162.51875729 -298.22647582 161.88148913 -300.3125 160.5625 C-302.98339167 156.55616249 -303.01943873 153.27258572 -302.3125 148.5625 C-300.11418636 145.53034325 -298.86286806 144.74595602 -295.3125 143.5625 C-292.34633126 143.44190021 -289.4019484 143.37706196 -286.43481445 143.35717773 C-285.52729431 143.34727814 -284.61977417 143.33737854 -283.68475342 143.32717896 C-280.68178933 143.2955638 -277.67880942 143.2708064 -274.67578125 143.24609375 C-272.59498175 143.22552424 -270.51418644 143.20452777 -268.43339539 143.18312073 C-262.95404442 143.12789976 -257.47465574 143.07849055 -251.99523926 143.03027344 C-246.40499511 142.98005863 -240.8148058 142.92437245 -235.22460938 142.86914062 C-224.25395308 142.76155873 -213.2832492 142.66011378 -202.3125 142.5625 C-202.54378349 140.67812981 -202.54378349 140.67812981 -202.77973938 138.75569153 C-202.90983634 137.69573329 -202.90983634 137.69573329 -203.04256153 136.61436176 C-203.39981866 133.89877162 -203.88261145 131.20934182 -204.35546875 128.51171875 C-205.50062226 121.1177555 -205.64368679 113.84597729 -205.625 106.375 C-205.64111328 105.10591797 -205.65722656 103.83683594 -205.67382812 102.52929688 C-205.67752472 95.17676833 -205.06964729 88.28451345 -203.78979492 81.05737305 C-203.57762455 79.82429539 -203.57762455 79.82429539 -203.36116791 78.56630707 C-203.01603926 76.56426978 -202.66490164 74.56326989 -202.3125 72.5625 C-215.43892604 72.51607223 -228.5653324 72.48057777 -241.69182396 72.45887566 C-247.7875802 72.44845751 -253.88328009 72.43433426 -259.97900391 72.41162109 C-265.86639583 72.38982253 -271.75373369 72.37791657 -277.64116287 72.37274551 C-279.88252233 72.36906234 -282.12387898 72.36187012 -284.3652153 72.35103989 C-287.51486254 72.33643181 -290.66428895 72.33452595 -293.81396484 72.33544922 C-294.73178741 72.32825867 -295.64960999 72.32106812 -296.59524536 72.31365967 C-307.72322092 72.34874545 -318.14225151 74.15843157 -326.16796875 82.48828125 Z M49.6875 72.5625 C49.89246094 73.66464844 50.09742188 74.76679687 50.30859375 75.90234375 C55.94381313 107.14808822 53.71880703 136.92239353 39.45605469 165.65991211 C38.4803904 168.0752081 37.88518185 169.94329762 37.6875 172.5625 C39.2570572 175.01204952 39.2570572 175.01204952 41.68896484 177.26098633 C42.58674652 178.16154251 43.4845282 179.06209869 44.40951538 179.98994446 C45.40543495 180.95853896 46.4017519 181.92672502 47.3984375 182.89453125 C48.40761455 183.89505475 49.41554409 184.89683799 50.42227173 185.89982605 C53.07525023 188.53557118 55.74619596 191.15237922 58.4208374 193.76611328 C60.60673161 195.908366 62.77952153 198.06364299 64.95174217 200.21974659 C67.53388268 202.78232299 70.12149131 205.33933932 72.7109375 207.89453125 C73.20806622 208.38523417 73.70519493 208.87593708 74.21738815 209.38150978 C75.61774425 210.76098253 77.0223854 212.13610135 78.42724609 213.51098633 C79.22746185 214.29532547 80.02767761 215.07966461 80.85214233 215.88777161 C82.39651488 217.67484043 82.39651488 217.67484043 83.6875 217.5625 C83.73433182 202.74108557 83.76954344 187.919681 83.79112434 173.09820747 C83.80141345 166.21551151 83.81542825 159.33286166 83.83837891 152.45019531 C83.8605297 145.80419904 83.87207957 139.15823797 83.87725449 132.51220322 C83.88094095 129.98057172 83.88813966 127.44894275 83.89896011 124.9173317 C83.91354352 121.3629624 83.91547506 117.80878908 83.91455078 114.25439453 C83.92174133 113.21501236 83.92893188 112.17563019 83.93634033 111.10475159 C83.90601994 100.28187074 82.56719246 90.14599605 75.12109375 81.80859375 C67.68384201 74.92352776 59.61970976 72.93379756 49.6875 72.5625 Z M23.6875 189.5625 C22.26012874 191.03429153 20.89526005 192.56701743 19.5625 194.125 C15.56219446 198.6828846 11.36586325 202.71272969 6.6875 206.5625 C8.02587862 209.5367925 9.49680495 211.62129955 11.79980469 213.92204285 C12.4391394 214.56557205 13.07847412 215.20910126 13.73718262 215.87213135 C14.4375061 216.56683533 15.13782959 217.26153931 15.859375 217.97729492 C16.59772583 218.7175441 17.33607666 219.45779327 18.09680176 220.22047424 C20.53884165 222.66621918 22.98800818 225.10468894 25.4375 227.54296875 C27.13415351 229.23843034 28.83043773 230.93426155 30.52636719 232.63044739 C34.08089878 236.18341465 37.63876648 239.73299539 41.19921875 243.2800293 C45.77109914 247.83490059 50.33634966 252.39634645 54.89935303 256.96010876 C58.40080353 260.46128785 61.90485038 263.95985843 65.40979004 267.45754433 C67.09456553 269.13913015 68.77872943 270.82132895 70.46228027 272.50414085 C72.8108874 274.85058869 75.16275251 277.19371893 77.515625 279.53588867 C78.21594849 280.23666534 78.91627197 280.93744202 79.63781738 281.65945435 C80.2771521 282.29452408 80.91648682 282.92959381 81.57519531 283.58390808 C82.13120422 284.13824115 82.68721313 284.69257421 83.2600708 285.26370525 C86.49026249 288.20280444 89.88325072 288.00648587 94.0703125 287.98828125 C98.3643757 287.28969485 100.93749169 284.80868718 103.6875 281.5625 C104.85756856 279.22236288 105.02586406 277.54792048 105.1875 274.9375 C105.2596875 274.12023437 105.331875 273.30296875 105.40625 272.4609375 C103.61663913 265.24413713 95.47388762 259.19999906 90.31518555 254.04492188 C89.61511887 253.34149658 88.91505219 252.63807129 88.19377136 251.91333008 C85.90653239 249.61668222 83.61562645 247.32373815 81.32421875 245.03125 C79.72468385 243.42849898 78.12522313 241.82567393 76.52583313 240.22277832 C73.18818355 236.87916527 69.84849816 233.53760093 66.50756836 230.19726562 C62.21717571 225.90697524 57.93374032 221.60980914 53.6519804 217.31090546 C50.35868492 214.00653027 47.06089398 210.70667067 43.76178932 207.40809631 C42.17926421 205.82438801 40.59836757 204.23905077 39.01910973 202.65208435 C36.82170741 200.44494989 34.61813938 198.24416364 32.4128418 196.04492188 C31.75777649 195.38423706 31.10271118 194.72355225 30.42779541 194.04284668 C27.58671904 190.72890464 27.58671904 190.72890464 23.6875 189.5625 Z M-334.3125 336.5625 C-334.97505397 357.25558291 -334.97505397 357.25558291 -326.3125 374.5625 C-318.21679783 382.36261873 -308.91828482 384.68393632 -297.88807964 384.69113445 C-296.63325368 384.6943589 -295.37842771 384.69758335 -294.08557671 384.7009055 C-292.70603277 384.6994346 -291.32648893 384.6978669 -289.94694519 384.69621277 C-288.47135161 384.69808216 -286.99575852 384.70038337 -285.52016622 384.70307809 C-281.4735187 384.70918666 -277.42689187 384.70906361 -273.3802408 384.70788372 C-269.01271203 384.70767947 -264.64518987 384.71320072 -260.27766418 384.71794128 C-251.72404618 384.72624314 -243.17043508 384.72899591 -234.61681338 384.72955366 C-227.66340328 384.73002903 -220.70999546 384.73208479 -213.75658607 384.73525429 C-194.03776342 384.74405945 -174.31894621 384.74867386 -154.60012158 384.74792381 C-153.53736222 384.74788386 -152.47460286 384.7478439 -151.37963867 384.74780273 C-150.3155802 384.74776185 -149.25152173 384.74772097 -148.15521906 384.74767885 C-130.90971777 384.74727238 -113.66423831 384.75684259 -96.41874333 384.7709411 C-78.70665752 384.78530669 -60.99458234 384.79221119 -43.28249055 384.79134732 C-33.34031236 384.79101543 -23.39815706 384.79375937 -13.45598412 384.80452538 C-4.99135796 384.81363275 3.47323493 384.81580365 11.93786386 384.80901595 C16.25501772 384.80575201 20.57210775 384.80568956 24.88925552 384.8143692 C28.84512593 384.82224058 32.80088196 384.82079626 36.75674959 384.81208507 C38.18403101 384.8105515 39.611321 384.81236086 41.03859232 384.81794515 C53.27748568 384.86264022 63.76107418 384.32877098 73.6875 376.5625 C84.78109346 365.04851773 83.6875 352.22478847 83.6875 336.5625 C-54.2525 336.5625 -192.1925 336.5625 -334.3125 336.5625 Z M-155.3125 404.5625 C-155.3125 412.4825 -155.3125 420.4025 -155.3125 428.5625 C-135.8425 428.5625 -116.3725 428.5625 -96.3125 428.5625 C-96.3125 420.6425 -96.3125 412.7225 -96.3125 404.5625 C-115.7825 404.5625 -135.2525 404.5625 -155.3125 404.5625 Z M-199 461.5 C-200.68884889 463.87993665 -200.68884889 463.87993665 -201.3125 468.5625 C-151.1525 468.5625 -100.9925 468.5625 -49.3125 468.5625 C-50.69201632 461.6649184 -54.54895861 457.251817 -60.26953125 453.1640625 C-68.26279713 448.8336985 -77.37273693 448.26198409 -86.28515625 448.30371094 C-87.2264035 448.3002063 -88.16765076 448.29670166 -89.13742065 448.29309082 C-92.21669112 448.28436296 -95.29572762 448.29009086 -98.375 448.296875 C-100.53393599 448.29552578 -102.69287168 448.29358311 -104.85180664 448.29107666 C-109.36379913 448.2881375 -113.87571211 448.29238408 -118.38769531 448.30175781 C-124.1506839 448.31315154 -129.91348614 448.30658559 -135.6764679 448.29461288 C-140.1307514 448.28736161 -144.58499125 448.2896972 -149.03927612 448.29486847 C-151.16340151 448.29619593 -153.28753096 448.29458915 -155.41165161 448.28990936 C-158.38782142 448.28479023 -161.36369576 448.29262955 -164.33984375 448.30371094 C-165.20455292 448.29966248 -166.06926208 448.29561401 -166.96017456 448.29144287 C-180.10543294 448.38142496 -190.2160159 451.41468492 -199 461.5 Z " fill="#000000" transform="translate(370.3125,23.4375)"/>
<path d="M0 0 C19.60861496 14.93066355 32.95947942 34.26373777 36.81640625 58.82421875 C39.9190603 81.97132485 35.5258385 105.6954652 21.65869141 124.85302734 C6.67545578 144.3276282 -13.50479533 157.42082686 -38 161 C-52.37564182 161.90424608 -66.32654989 161.80376089 -80 157 C-81.07121094 156.62617188 -82.14242187 156.25234375 -83.24609375 155.8671875 C-105.58724485 147.27224784 -122.32671743 130.38949406 -132.30859375 108.9453125 C-141.15658939 88.93816795 -142.26396412 64.67618544 -135 44 C-134.43925781 42.39318359 -134.43925781 42.39318359 -133.8671875 40.75390625 C-125.27224784 18.41275515 -108.38949406 1.67328257 -86.9453125 -8.30859375 C-59.12294032 -20.61280974 -24.95734216 -17.50351486 0 0 Z M-73 9 C-73.91652344 9.36351562 -74.83304688 9.72703125 -75.77734375 10.1015625 C-81.99661579 12.74624608 -87.56883025 15.98881165 -93 20 C-93.88945312 20.64001953 -93.88945312 20.64001953 -94.796875 21.29296875 C-104.46194545 28.85211788 -110.60280197 39.75332043 -115 51 C-115.3403125 51.82242188 -115.680625 52.64484375 -116.03125 53.4921875 C-120.77118847 67.2292314 -119.37470535 84.69760426 -114 98 C-113.5875 99.0209375 -113.175 100.041875 -112.75 101.09375 C-105.05347372 118.06109202 -90.83815985 130.35865488 -73.5546875 136.9296875 C-59.86812971 141.67255406 -42.58066287 142.33526041 -29 137 C-28.18015625 136.73316406 -27.3603125 136.46632812 -26.515625 136.19140625 C-19.42573994 133.71435013 -13.85960114 129.62076572 -8 125 C-7.3503125 124.51660156 -6.700625 124.03320312 -6.03125 123.53515625 C2.25643316 117.03685923 7.87628789 107.55379104 12 98 C12.44472656 96.99646484 12.44472656 96.99646484 12.8984375 95.97265625 C19.36004953 79.30681532 17.49747292 60.93346395 10.7734375 44.73828125 C8.29793565 39.24042939 4.83557925 34.62136729 1 30 C0.51917969 29.35804687 0.03835938 28.71609375 -0.45703125 28.0546875 C-9.74767562 16.1133982 -25.3168113 8.61534669 -40 6 C-50.95996527 5.26800475 -62.7056677 4.76015968 -73 9 Z " fill="#000000" transform="translate(345,57)"/>
<path d="M0 0 C1.25904144 -0.00744736 1.25904144 -0.00744736 2.54351807 -0.01504517 C5.32288429 -0.02966098 8.10219344 -0.03646801 10.8815918 -0.04199219 C12.81349184 -0.04774435 14.74539186 -0.05350207 16.67729187 -0.05926514 C20.73001369 -0.06977363 24.78271569 -0.07561722 28.83544922 -0.07910156 C34.02400932 -0.08458437 39.21230674 -0.10860851 44.40078449 -0.13707352 C48.39254009 -0.15571415 52.38423262 -0.16090627 56.37602806 -0.16243744 C58.28856021 -0.16546154 60.20109131 -0.17348186 62.1135807 -0.18662262 C64.79206846 -0.20371201 67.46991707 -0.20179578 70.1484375 -0.1953125 C70.93566696 -0.20452728 71.72289642 -0.21374207 72.53398132 -0.22323608 C77.33935539 -0.18687209 80.58163761 0.55251603 84.76831055 3.16113281 C87.39943972 6.50984267 87.12972453 10.04101345 86.76831055 14.16113281 C85.56389053 16.87107784 84.61550822 18.55904895 82.19297791 20.28068542 C78.58575359 21.59054395 75.01290269 21.44738094 71.22363281 21.43579102 C70.36301239 21.44090195 69.50239197 21.44601288 68.61569214 21.45127869 C65.77196287 21.46517408 62.92847597 21.46421798 60.0847168 21.46191406 C58.10700897 21.46580096 56.12930198 21.47013562 54.15159607 21.47489929 C50.00647272 21.48236135 45.86143454 21.48207027 41.71630859 21.47680664 C36.40546892 21.47101144 31.09497792 21.48794435 25.7841959 21.51115131 C21.69982364 21.52588571 17.61553541 21.52676076 13.53114128 21.52364159 C11.5731328 21.52415493 9.61511963 21.52939504 7.65713692 21.53945351 C4.91865527 21.55179508 2.18085364 21.54503998 -0.55761719 21.53344727 C-1.36557236 21.541091 -2.17352753 21.54873474 -3.00596619 21.55661011 C-7.5923788 21.51371334 -10.61148758 21.05370337 -14.23168945 18.16113281 C-16.90303408 14.15411587 -17.05822227 10.87236985 -16.23168945 6.16113281 C-11.56130623 0.10225728 -7.18665575 0.01012687 0 0 Z " fill="#000000" transform="translate(83.231689453125,261.8388671875)"/>
<path d="M0 0 C0.77108597 -0.0049649 1.54217194 -0.00992981 2.33662415 -0.01504517 C4.88873181 -0.02965526 7.4407773 -0.03646712 9.99291992 -0.04199219 C11.76787823 -0.04774491 13.54283652 -0.05350263 15.3177948 -0.05926514 C19.04096771 -0.06977207 22.76411904 -0.07561664 26.48730469 -0.07910156 C31.25213595 -0.0845834 36.01668104 -0.10860603 40.78142262 -0.13707352 C44.44891689 -0.15572167 48.11634256 -0.16090667 51.78388023 -0.16243744 C53.54011282 -0.16545995 55.29634431 -0.17347493 57.05253029 -0.18662262 C59.51310447 -0.20372764 61.9729838 -0.20179212 64.43359375 -0.1953125 C65.15536804 -0.20452728 65.87714233 -0.21374207 66.62078857 -0.22323608 C71.27920934 -0.18491741 74.47393061 0.66499276 78.41088867 3.16113281 C81.07925278 7.16367897 81.24491248 10.4542658 80.41088867 15.16113281 C78.22929722 17.91682728 76.53911374 19.59702028 73.41088867 21.16113281 C70.84386114 21.26972589 68.30354829 21.31844724 65.73583984 21.32226562 C64.54775978 21.32971298 64.54775978 21.32971298 63.3356781 21.33731079 C60.70839578 21.35194737 58.08117386 21.35873729 55.45385742 21.36425781 C53.63023374 21.37000854 51.80661009 21.37576628 49.98298645 21.38153076 C46.15548419 21.39204535 42.32800296 21.39788485 38.50048828 21.40136719 C33.5976499 21.40684942 28.69508959 21.43086968 23.79233837 21.45933914 C20.02365815 21.47797085 16.25504479 21.48317143 12.4863224 21.48470306 C10.67902419 21.4877295 8.87172715 21.49575772 7.06447411 21.50888824 C4.53414199 21.52595813 2.00448755 21.5240662 -0.52587891 21.51757812 C-1.271521 21.52679291 -2.01716309 21.53600769 -2.78540039 21.54550171 C-7.23344813 21.50980449 -10.06818629 20.92539015 -13.58911133 18.16113281 C-16.26045595 14.15411587 -16.41564414 10.87236985 -15.58911133 6.16113281 C-11.07832061 0.30929621 -6.96018659 0.01068976 0 0 Z " fill="#000000" transform="translate(82.589111328125,213.8388671875)"/>
<path d="M0 0 C11.31489246 2.34151374 20.89046999 9.48486976 27.5703125 18.76953125 C33.21218845 27.57147433 37.46914393 37.78783891 35.3125 48.375 C33.75955406 51.48089188 32.94097299 53.08836756 30 55 C26.54944415 55.62471993 23.41290835 55.84665369 20 55 C15.50096066 51.51292223 14.35761964 48.79734633 13.5625 43.25 C12.13246743 35.74625766 10.17401351 29.97306927 3.7734375 25.4140625 C-0.67649267 22.9701326 -4.8041656 21.74922523 -9.8125 21 C-13.3882511 20.43274203 -15.04188135 19.97372151 -18.1875 18 C-20.40887581 14.32324005 -20.59803507 11.7257554 -20.6640625 7.5 C-18.01504961 -2.4727544 -8.12099711 -0.86481207 0 0 Z " fill="#000000" transform="translate(304,85)"/>
<path d="M0 0 C3.08813077 2.05875385 4.66221204 3.4716479 5.4765625 7.15625 C5.75651394 11.57653582 5.43904153 13.44542123 2.625 17 C-1.18996521 19.90664016 -3.18673652 20.4628138 -8 20 C-12.03539675 18.05990541 -13.6423493 16.75821949 -15.5625 12.6875 C-16.10611213 8.10562634 -15.35065577 5.94303548 -13 2 C-9.04354915 -1.6173265 -4.94856685 -1.59631189 0 0 Z " fill="#000000" transform="translate(206,263)"/>
</svg>
